<?xml version="1.0" encoding="utf-8" ?>
<svg xmlns="http://www.w3.org/2000/svg" xmlns:xlink="http://www.w3.org/1999/xlink" width="417" height="417">
	<path transform="scale(0.407352 0.407352)" d="M486.051 145.017C487.321 144.983 488.503 145.014 489.762 145.213C492.418 145.633 494.584 146.758 496.089 149.061C497.584 151.349 497.713 154.909 496.99 157.5C496.139 160.553 493.256 162.144 490.664 163.502C488.726 163.59 486.07 163.626 484.271 162.939C482.178 162.139 480.792 160.557 479.852 158.579C478.585 155.915 478.811 152.624 479.956 149.958C481.153 147.17 483.425 146.141 486.051 145.017Z"/>
	<path fill="#FEFEFE" transform="scale(0.407352 0.407352)" d="M486.663 150.75C487.499 150.607 488.402 150.607 489.25 150.548C490.709 151.353 491.156 151.802 491.981 153.25C491.932 154.468 491.9 155.231 491.253 156.293C490.577 157.403 490.43 157.17 489.25 157.481C487.746 157.514 486.33 157.636 484.884 157.138C484.022 156.02 483.801 155.398 483.617 154C484.396 152.317 485.114 151.74 486.663 150.75Z"/>
	<path transform="scale(0.407352 0.407352)" d="M461.896 181.611L467.008 181.998C469.609 182.487 471.898 184.377 473.25 186.598C474.832 189.197 474.728 192.625 473.794 195.436C472.464 199.44 469.223 201.211 465.713 202.982C463.416 202.747 460.916 202.642 458.832 201.568C456.519 200.376 454.807 198.301 454.005 195.83C453.015 192.776 453.414 189.206 454.963 186.402C456.464 183.683 459.021 182.421 461.896 181.611Z"/>
	<path fill="#FEFEFE" transform="scale(0.407352 0.407352)" d="M462.139 187.75L462.834 187.603C464.793 187.302 465.774 187.934 467.25 189.049C467.956 190.435 468.342 191.173 468.048 192.75C467.735 194.425 466.549 195.311 465.25 196.255L463.25 196.826C461.707 196.884 461.073 196.117 459.932 195.25C459.437 194.271 459.271 193.597 459.343 192.513C459.501 190.159 460.438 189.203 462.139 187.75Z"/>
	<path transform="scale(0.407352 0.407352)" d="M417.241 155.192C420.162 155.108 423.273 155.4 426 156.475C430.091 158.087 433.102 161.124 434.716 165.21L435.017 166C436.194 168.98 436.647 173.843 435.679 176.971L435.5 177.5C435.025 178.935 434.549 180.366 433.764 181.668C430.762 186.645 425.892 188.613 420.532 189.996C416.446 190.137 412.939 189.653 409.448 187.353C405.58 184.804 402.619 180.24 401.704 175.71C400.717 170.821 401.578 166.084 404.541 162.059C407.675 157.802 412.222 156.034 417.241 155.192Z"/>
	<path fill="#C449C2" transform="scale(0.407352 0.407352)" d="M427.256 165.394C429.024 167.462 430.252 170.165 430.702 172.862C429.013 176.748 427.535 180.286 423.371 182.114C421.289 183.027 418.295 183.001 416.073 182.733C421.362 177.194 425.94 173.275 427.256 165.394Z"/>
	<path fill="#FEFEFE" transform="scale(0.407352 0.407352)" d="M409.636 178.257C408.881 176.886 408.381 175.607 408.117 174.052C407.685 171.509 408.35 168.557 409.923 166.507C412.128 163.633 415.684 162.216 419.25 162.046C422.107 161.911 424.538 163.05 426.518 165.013C424.934 166.212 423.22 165.899 421.266 166.037C412.792 166.64 413.906 173.052 409.636 178.257Z"/>
	<path fill="#E37ECE" transform="scale(0.407352 0.407352)" d="M426.518 165.013L427.256 165.394C425.94 173.275 421.362 177.194 416.073 182.733C413.326 181.607 411.725 180.382 409.636 178.257C413.906 173.052 412.792 166.64 421.266 166.037C423.22 165.899 424.934 166.212 426.518 165.013Z"/>
	<path transform="scale(0.407352 0.407352)" d="M703.499 125.579C706.278 125.503 709.206 125.864 711.75 127.031C720.61 131.094 726.583 141.89 729.726 150.703L730.005 151.5L730.46 152.799C731.445 155.928 731.908 160.006 730.276 162.992L729.982 163.5C727.947 167.118 723.482 170.067 720.238 172.64L691.665 193.939L658.782 219.032L649.079 226.387C647.73 227.411 645.795 228.535 644.651 229.746C643.824 230.62 629.638 295.993 628.07 303.23C639.165 304.794 650.523 306.997 661.318 309.996C668.762 312.065 676.007 314.35 682.75 318.222C685.951 320.06 689.597 322.357 691.771 325.401C695.816 331.061 694.92 340.143 690.985 345.708C689.455 347.873 686.116 349.971 685.803 352.679L665.982 544.201C678.973 548.23 690.242 553.976 699.25 564.429C707.644 574.171 711.271 586.466 710.258 599.148C710.146 600.539 711.353 601.495 712.215 602.494C717.804 608.973 720.945 615.747 723.034 624C724.697 630.569 725.126 639.284 723.275 645.872C719.923 657.797 714.353 667.927 703.42 674.362C701.668 675.393 699.874 676.26 698.019 677.082C697.459 677.33 695.772 677.867 695.392 678.221C694.738 678.83 694.148 681.404 693.843 682.346C693.002 684.936 691.955 687.388 690.645 689.777C688.806 693.131 686.472 695.895 683.758 698.573C673.149 709.044 662.575 708.748 648.611 708.6L646.163 732.5L638.077 810L636.165 831.078C635.827 835.54 635.75 840.513 634.858 844.877C634.383 847.202 633.135 849.095 631.363 850.644C626.271 855.095 616.978 858.117 610.588 860.252C568.069 874.46 520.073 875.937 475.715 872.394C451.72 870.478 403.703 865.044 387.796 846.316L385.4 819.877L376.386 711.507L363.299 710.71L362.5 710.586C357.519 709.853 353.301 708.406 348.876 705.994C337.266 699.667 331.744 689.301 328.157 677.095C322.246 675.235 317.026 672.815 312.25 668.824C303.281 661.328 297.811 650.232 296.856 638.64C295.997 628.215 299.093 616.856 305.421 608.5C306.893 606.557 309.919 603.67 310.634 601.378C311.414 598.875 310.814 594.075 310.934 591.362C311.349 581.967 316.489 571.778 322.559 564.75C333.135 552.507 345.509 548.712 361.116 547.398L346.94 412.014L342.096 366.806C341.586 361.957 341.908 356.139 340.793 351.496C340.481 350.201 337.369 347.901 336.368 346.749C334.545 344.651 333.138 342.266 332.319 339.603C330.841 334.794 331.2 329.081 333.761 324.723C335.728 321.376 339.319 318.908 342.69 317.095C352.906 311.601 364.548 309.558 375.679 306.746C374.677 303.837 373.867 301.114 373.297 298.083C372.283 292.69 372.054 286.658 372.811 281.2L372.947 280.25L373.073 279.261C374.756 266.744 381.825 254.997 391.887 247.444C402.844 239.219 418.362 236.492 430.985 242.669C434.746 244.509 438.757 248.011 443.041 248.372C444.863 248.526 447.02 248.027 448.75 247.465C459.644 243.925 460.044 232.907 468.365 226.484C477.012 219.81 488.957 218.192 499.495 219.779L500.25 219.9L502.778 220.32C519.48 223.891 533.665 238.627 536.935 255.314C537.565 258.528 537.955 261.766 538.265 265.025C538.304 265.433 538.377 268.018 538.556 268.255C539.076 268.941 540.962 269.967 541.724 270.535C543.756 272.049 545.721 273.685 547.542 275.449C553.824 281.532 557.127 288.422 561.685 295.705L586.323 297.07C589.946 273.999 596.37 251.119 601.25 228.268C602.646 221.729 602.306 214.534 604.626 208.291C605.684 205.446 607.555 203.167 609.723 201.08C615.23 195.777 621.583 191.114 627.49 186.254L666.228 154.804L684.162 140.25C690.314 135.122 696.151 128.929 703.499 125.579Z"/>
	<path fill="#FEFEFE" transform="scale(0.407352 0.407352)" d="M546.855 647.25C548.671 647.015 550.686 646.543 552.459 647.08C552.99 648.351 552.894 648.768 552.75 650.16L551.339 651.092C549.935 651.6 548.365 652.411 546.853 652.25C546.183 650.911 545.964 649.454 545.66 648L546.855 647.25Z"/>
	<path fill="#FEFEFE" transform="scale(0.407352 0.407352)" d="M562.774 555.75L563.512 555.607C564.899 555.424 566.135 555.594 567.25 556.513C567.945 557.087 567.972 557.614 567.985 558.5C568.005 559.892 567.204 560.91 566.25 561.812C564.92 562.153 564.106 562.196 562.75 561.974C561.567 560.915 560.928 560.439 560.958 558.75C560.986 557.172 561.647 556.707 562.774 555.75Z"/>
	<path fill="#DAAEEE" transform="scale(0.407352 0.407352)" d="M667.988 359.119L670.25 358.495L670.885 359L670.273 368.214L669.218 368.001C667.49 367.548 665.861 367.377 664.084 367.202C664.858 364.526 666.711 361.632 667.988 359.119Z"/>
	<path fill="#FEFEFE" transform="scale(0.407352 0.407352)" d="M469.551 552.25C469.916 552.07 470.108 551.948 470.542 551.879C471.852 551.674 473.281 552.24 474.25 553.123C475.394 554.166 475.852 555.46 475.642 557C475.422 558.612 474.439 559.116 473.25 559.968C472.77 560.152 472.547 560.27 471.992 560.313C470.843 560.401 469.734 559.903 468.913 559.146C468.037 558.339 467.545 557.254 467.518 556.065C467.472 553.958 468.144 553.709 469.551 552.25Z"/>
	<path fill="#FEFEFE" transform="scale(0.407352 0.407352)" d="M622.684 223.529L616.296 222.221L618.692 213.84C619.004 212.688 619.277 210.882 620.096 209.978C620.836 209.161 622.604 208.277 623.697 208.215C624.515 208.169 625.156 208.974 625.77 209.45L622.684 223.529Z"/>
	<path fill="#FE1B35" transform="scale(0.407352 0.407352)" d="M625.77 209.45L626.115 210.03C629.562 215.674 634.569 219.471 637.607 225.702L622.684 223.529L625.77 209.45Z"/>
	<path fill="#FEFEFE" transform="scale(0.407352 0.407352)" d="M534.118 647.685C535.342 647.347 537.484 647.533 538.802 647.486C539.967 650.065 541.45 653.018 541.953 655.807L534.92 658.645L531.032 659.917L527.496 648.608L534.118 647.685Z"/>
	<path fill="#FEFEFE" transform="scale(0.407352 0.407352)" d="M463.07 674.75L463.744 675.006C465.939 679.303 466.918 684.159 467.991 688.827L462.509 693.07L461.3 692.25L455.091 683.611C457.349 680.204 459.989 677.411 463.07 674.75Z"/>
	<path fill="#FEFEFE" transform="scale(0.407352 0.407352)" d="M574.216 418.029L567.065 417.421L577.174 376.208C579.319 375.442 582.027 375.529 584.308 375.349L574.216 418.029Z"/>
	<path fill="#FE1B35" transform="scale(0.407352 0.407352)" d="M467.321 717.102C467.99 718.899 466.243 722.577 465.624 724.485C464.659 727.461 463.941 730.406 463.455 733.5L463.322 734.291C462.57 739.153 462.606 745.293 463.272 750.163C463.926 754.939 465.052 759.607 465.002 764.464C462.533 763.16 459.805 761.31 458.091 759.078C453.752 753.43 453.296 746.421 454.409 739.597C455.871 730.625 459.762 722.463 467.321 717.102Z"/>
	<path fill="#E37ECE" transform="scale(0.407352 0.407352)" d="M661.343 588.378L663.949 559.41C669.425 560.884 674.415 562.946 679.242 565.937C678.722 568.541 678.155 571.16 677.136 573.619C674.682 579.546 670.993 584.688 664.85 587.206L661.343 588.378Z"/>
	<path fill="#FEFEFE" transform="scale(0.407352 0.407352)" d="M519.515 649.75L521.25 649.695C523.914 653.439 525.716 657.678 527.269 661.978L506.75 671.471L505.32 671.372C502.18 667.388 500.407 659.211 498.941 654.344L519.515 649.75Z"/>
	<path fill="#E37ECE" transform="scale(0.407352 0.407352)" d="M664.084 367.202C665.861 367.377 667.49 367.548 669.218 368.001L670.273 368.214L663.403 438.102C660.984 436.665 659.219 434.909 657.256 432.922L662.497 369.206L664.084 367.202Z"/>
	<path fill="#8604AF" transform="scale(0.407352 0.407352)" d="M699.179 609.913C705.761 615.613 709.687 624.432 710.276 633.016C710.836 641.17 707.85 650.614 702.404 656.734C699.118 660.427 694.997 662.632 690.287 664.035L686.48 657.059C689.326 655.42 691.987 652.526 693.837 649.842C702.516 637.252 701.781 624.25 699.179 609.913Z"/>
	<path fill="#E37ECE" transform="scale(0.407352 0.407352)" d="M451.433 253.848C456.326 251.715 460.617 248.597 463.667 244.152C466.299 240.316 468.125 236.303 471.685 233.134C477.556 227.907 487.048 225.681 494.805 226.072C506.663 226.671 515.199 232.274 522.873 240.905C519.739 240.921 514.633 237.237 511.609 235.756C509.337 234.331 507.08 233.564 504.5 232.901L503.562 232.651L502.5 232.412L501.92 232.279C495.707 230.972 488.941 231.764 483.325 234.551C480.435 235.985 477.54 238.462 475.998 241.325C474.62 243.883 473.873 246.72 472.174 249.119C469.28 253.202 463.803 254.903 459 255.008C457.369 255.044 454.278 255.384 452.816 254.75C452.053 254.419 452.002 254.32 451.433 253.848Z"/>
	<path fill="#9C0637" transform="scale(0.407352 0.407352)" d="M467.321 717.102C470.823 715.236 474.254 714.795 478.082 714.086C473.38 725.216 469.423 737.7 474.081 749.612C474.851 751.581 475.926 753.523 477.177 755.234C478.014 756.377 481.54 759.684 481.466 760.792C475.943 764.59 472.727 765.838 466.029 764.682L465.002 764.464C465.052 759.607 463.926 754.939 463.272 750.163C462.606 745.293 462.57 739.153 463.322 734.291L463.455 733.5C463.941 730.406 464.659 727.461 465.624 724.485C466.243 722.577 467.99 718.899 467.321 717.102Z"/>
	<path fill="#D31213" transform="scale(0.407352 0.407352)" d="M715.742 149.273C717.863 152.684 718.638 155.497 719.275 159.384C712.373 166.46 703.433 171.981 695.675 178.099L659.156 206.812C654.641 210.335 649.067 215.846 643.963 218.223L640.831 215.086C647.011 211.39 652.706 206.624 658.378 202.204C671.052 192.325 683.278 182.305 694.627 170.907C699.933 165.579 704.391 159.495 709.593 154.097C711.347 152.277 713.762 150.867 715.742 149.273Z"/>
	<path fill="#FEFEFE" transform="scale(0.407352 0.407352)" d="M492.681 657.25C496.477 659.971 498.944 670.279 500.437 674.773L474.362 686.75C472.656 685.635 472.005 682.973 471.246 681.148C469.808 677.69 468.336 674.456 466.42 671.233C474.178 664.434 482.812 660.158 492.681 657.25Z"/>
	<path fill="#8604AF" transform="scale(0.407352 0.407352)" d="M676.466 651.778C680.251 658.813 683.005 667.406 680.639 675.35C678.564 682.318 674.093 688.994 667.5 692.388C662.416 695.006 656.396 695.059 650.81 695.009C650.973 692.53 651.753 675.655 652.233 675.132L652.75 676.884C658.33 675.339 664.63 672.127 668.865 668.191C673.583 663.807 676.286 658.224 676.466 651.778Z"/>
	<path fill="#831158" transform="scale(0.407352 0.407352)" d="M589.1 374.774L601.188 373.337L589.732 420.599L578.642 418.794L574.216 418.029L584.308 375.349C585.605 374.876 587.7 374.923 589.1 374.774Z"/>
	<path fill="#A51D80" transform="scale(0.407352 0.407352)" d="M584.308 375.349C585.605 374.876 587.7 374.923 589.1 374.774L590.38 375.5C589.964 380.377 588.357 385.157 587.247 389.911C585.062 399.272 583.423 409.439 579.457 418.235L578.642 418.794L574.216 418.029L584.308 375.349Z"/>
	<path fill="#B7B5B5" transform="scale(0.407352 0.407352)" d="M582.656 546.916L582.194 544.671C584.662 542.375 588.076 541.516 591.115 540.168L605.916 533.262C611.679 550.117 614.422 567.798 606.25 584.421C601.462 594.161 593.701 602.569 583.205 606.161C575.234 608.889 566.532 607.59 559.097 603.872C548.041 598.343 540.738 586.179 537.016 574.789L534.249 563.039L539.97 561.587C539.857 569.959 541.73 578.401 545.851 585.734C550.4 593.83 557.389 599.55 566.34 602.067C573.619 604.114 582.702 601.751 589.157 597.97C597.851 592.878 603.231 583.534 605.742 573.997C609.283 560.555 606.268 549.923 599.415 538.219C596.318 540.076 593.252 542.438 589.996 543.983C587.881 544.987 583.882 545.079 582.656 546.916Z"/>
	<path fill="#D31213" transform="scale(0.407352 0.407352)" d="M629.095 232.195L635.311 234.003L608.84 347.337L600.85 348.006C601.352 343.443 602.821 338.688 603.929 334.219L609.674 311.008L629.095 232.195Z"/>
	<path fill="#FEFEFE" transform="scale(0.407352 0.407352)" d="M592.314 349.01L584.721 349.518L614.092 229.404L621.514 230.673L592.314 349.01Z"/>
	<path fill="#FE1B35" transform="scale(0.407352 0.407352)" d="M621.514 230.673L629.095 232.195L609.674 311.008L603.929 334.219C602.821 338.688 601.352 343.443 600.85 348.006L592.314 349.01L621.514 230.673Z"/>
	<path fill="#E37ECE" transform="scale(0.407352 0.407352)" d="M624.317 318.044C636.985 319.251 649.413 321.534 661.5 325.538C666.688 327.256 671.628 329 676.101 332.218C671.144 334.836 666.084 336.454 660.669 337.849L617.129 345.741L624.317 318.044Z"/>
	<path fill="#B7B5B5" transform="scale(0.407352 0.407352)" d="M492.459 563.532C492.898 562.487 493.499 561.57 494.101 560.616C497.781 560.01 503.392 562.722 506.922 563.986C504.679 570.527 502.685 577.39 499.137 583.363C491.817 595.686 483.495 604.34 469.104 607.806C460.948 609.77 451.271 607.841 444.25 603.337C432.922 596.071 425.668 583.123 422.841 570.24C419.705 555.946 421.062 540.13 429.074 527.645L455.082 542.469L451.767 551.858L428.202 539.616C425.879 556.945 425.667 571.585 436.726 586.075C442.782 594.009 452.164 601.517 462.344 602.808C471.38 603.954 480.041 601.005 487.014 595.25C494.096 589.405 497.688 582.315 501.145 573.979C498.85 569.622 497.078 565.808 492.459 563.532Z"/>
	<path fill="#8604AF" transform="scale(0.407352 0.407352)" d="M326.58 605.036L327.078 605.495C328.483 606.681 331.324 606.983 333.098 607.481C326.489 615.103 321.19 621.151 322.094 631.952C322.211 633.346 322.568 634.655 322.926 636L323.09 636.651C324.699 642.695 329.656 648.391 335.056 651.351C338.64 653.316 342.932 654.858 347.034 655.202C350.724 663.038 353.537 669.299 362.25 672.506C365.79 673.809 369.467 674.578 373.224 674.833L375.048 697.564L367.733 696.905C359.762 696.076 352.898 693.04 347.804 686.681C340.768 677.899 340.887 669.299 341.991 658.75L341.25 658.048C338.89 658.523 337.053 660.668 334.91 661.755C332.567 662.944 330.493 662.406 328.122 661.568C321.591 659.259 316.718 653.401 313.928 647.217C308.61 635.429 311.135 622.089 320.065 612.75C322.08 610.642 325.37 608.86 326.301 605.999L326.58 605.036Z"/>
	<path fill="#FE1B35" transform="scale(0.407352 0.407352)" d="M706.461 140.938L707.5 140.101C711.008 142.287 713.581 145.81 715.742 149.273C713.762 150.867 711.347 152.277 709.593 154.097C704.391 159.495 699.933 165.579 694.627 170.907C683.278 182.305 671.052 192.325 658.378 202.204C652.706 206.624 647.011 211.39 640.831 215.086L634.094 207.979C632.2 206.631 630.598 204.861 628.949 203.228L706.461 140.938Z"/>
	<path fill="#FEFEFE" transform="scale(0.407352 0.407352)" d="M706.461 140.938C708.688 143.613 709.188 148.9 709.933 152.27C707.926 152.428 705.196 152.406 703.399 153.359C700.444 154.927 697.662 157.378 695.068 159.473L680.023 172.129L654.437 192.054C647.702 197.356 641.232 203.236 634.094 207.979C632.2 206.631 630.598 204.861 628.949 203.228L706.461 140.938Z"/>
	<path fill="#9C0637" transform="scale(0.407352 0.407352)" d="M436.121 466.412C460.62 478.13 478.617 503.021 494.394 524.385C499.431 531.205 505.786 541.5 513.147 545.863C516.957 543.565 519.99 540.67 523.011 537.432L519.874 546.942L530.697 539.375C531.204 539.015 533.421 537.19 533.873 537.14L534.405 537.295C536.289 537.815 537.586 537.847 539.5 537.519L539.67 538.086C535.058 542.997 528.716 548.245 522.739 551.429C520.464 552.64 517.432 553.272 515.496 554.94C513.931 554.98 512.516 554.984 510.973 554.699L511.277 554.079C509.069 550.891 505.534 548.35 502.545 545.904L492.334 536.99C479.417 524.782 467.642 511.321 453.998 499.891C450.83 497.237 447.461 494.857 444.015 492.582C441.777 491.104 439.401 489.988 437.713 487.847C435.347 484.167 429.566 482.602 425.566 481.505L436.121 466.412Z"/>
	<path fill="#FE1B35" transform="scale(0.407352 0.407352)" d="M533.873 537.14C542.61 530.435 552.273 524.944 561.765 519.395L584.382 507.009C591.112 503.653 598.293 500.001 606 500.065C606.9 500.073 607.633 500.21 608.5 500.408L609.083 500.53C613.418 501.522 616.295 505.663 618.473 509.25L620.15 512.267L583.234 530.182C570.919 536.174 558.699 542.416 546 547.57C536.462 551.442 525.931 555.193 515.496 554.94C517.432 553.272 520.464 552.64 522.739 551.429C528.716 548.245 535.058 542.997 539.67 538.086L539.5 537.519C537.586 537.847 536.289 537.815 534.405 537.295L533.873 537.14Z"/>
	<path fill="#FEFEFE" transform="scale(0.407352 0.407352)" d="M338.797 339.633L350.143 344.839C369.519 352.538 391.438 355.227 412.064 357.535C443.604 361.065 475.288 362.21 507.005 362.441L583.04 360.547C605.795 358.901 629.029 356.326 651.313 351.329C661.59 349.025 671.388 345.225 681.019 341.046L677.033 345.167C670.655 350.184 662.185 352.607 654.509 354.816C626.76 362.802 596.631 365.506 567.858 367.357L494.609 368.755C462.321 368.272 430.676 366.512 398.75 361.507C386.378 359.568 373.587 357.621 361.786 353.314C356.721 351.465 351.235 349.302 346.749 346.279C343.938 344.385 341.347 341.872 338.797 339.633Z"/>
	<path fill="#FEFEFE" transform="scale(0.407352 0.407352)" d="M492.459 563.532C497.078 565.808 498.85 569.622 501.145 573.979C497.688 582.315 494.096 589.405 487.014 595.25C480.041 601.005 471.38 603.954 462.344 602.808C452.164 601.517 442.782 594.009 436.726 586.075C425.667 571.585 425.879 556.945 428.202 539.616L451.767 551.858C450.601 560.872 450.444 570.295 456.278 577.881C459.091 581.537 463.652 584.319 468.273 584.769C473.232 585.252 478.339 583.039 481.987 579.76C486.728 575.499 489.692 569.156 492.459 563.532Z"/>
	<path fill="#FEFEFE" transform="scale(0.407352 0.407352)" d="M582.656 546.916C583.882 545.079 587.881 544.987 589.996 543.983C593.252 542.438 596.318 540.076 599.415 538.219C606.268 549.923 609.283 560.555 605.742 573.997C603.231 583.534 597.851 592.878 589.157 597.97C582.702 601.751 573.619 604.114 566.34 602.067C557.389 599.55 550.4 593.83 545.851 585.734C541.73 578.401 539.857 569.959 539.97 561.587L547.072 559.158C548.264 567.133 550.994 575.215 557.609 580.366C561.123 583.102 564.951 584.052 569.312 583.334C574.115 582.543 577.735 579.501 580.313 575.485C585.933 566.726 584.615 556.489 582.656 546.916Z"/>
	<path fill="#FE1B35" transform="scale(0.407352 0.407352)" d="M510.973 554.699C503.911 554.138 497.115 551.903 490.5 549.516C476.187 544.35 462.166 537.426 449.114 529.601C439.68 523.945 430.278 515.44 419.5 512.6C416.447 511.796 413.233 511.738 410.094 511.589C411.731 506.517 413.891 501.842 417.275 497.685C422.905 490.769 429.213 488.767 437.713 487.847C439.401 489.988 441.777 491.104 444.015 492.582C447.461 494.857 450.83 497.237 453.998 499.891C467.642 511.321 479.417 524.782 492.334 536.99L502.545 545.904C505.534 548.35 509.069 550.891 511.277 554.079L510.973 554.699Z"/>
	<path fill="#9C0637" transform="scale(0.407352 0.407352)" d="M595.852 610.055C609.165 600.58 617.264 587.631 619.978 571.5C622.472 556.682 619.554 542.771 614.27 528.964L630.708 521.269L638.382 531.53C638.742 532.022 640.564 534.013 640.633 534.407C640.975 536.37 639.977 540.287 639.752 542.391L637.668 563.5L630.059 639.344L628.093 659.968C627.364 665.887 626.617 671.439 625.29 677.257C625.451 665.036 626.451 653.001 617.25 643.401C610.991 636.87 603.736 634.505 595.121 632.713C597.087 629.013 595.972 614.812 595.852 610.055Z"/>
	<path fill="#C449C2" transform="scale(0.407352 0.407352)" d="M679.242 565.937C687.198 571.197 693.553 579.578 695.516 589C697.539 598.704 693.289 606.413 689.018 614.752C692.455 612.99 694.753 610.943 697.823 608.719L699.179 609.913C701.781 624.25 702.516 637.252 693.837 649.842C691.987 652.526 689.326 655.42 686.48 657.059C683.432 654.252 680.358 651.57 676.75 649.501L675.992 649.75L676.466 651.778C676.286 658.224 673.583 663.807 668.865 668.191C664.63 672.127 658.33 675.339 652.75 676.884L652.233 675.132L657.699 628.768C661.036 630.685 663.766 632.827 666.627 635.395C670.774 627.626 675.078 623.41 682.535 618.794C677.325 619.367 673.564 620.231 668.798 622.446L659.418 615.139L661.343 588.378L664.85 587.206C670.993 584.688 674.682 579.546 677.136 573.619C678.155 571.16 678.722 568.541 679.242 565.937Z"/>
	<path fill="#5493B7" transform="scale(0.407352 0.407352)" d="M662.497 369.206C661.821 368.831 661.235 368.642 660.5 368.416C659.115 370.13 658.789 373.143 658.479 375.302L656.551 389.5L650.34 432.946L596.566 421.261C596.112 419.854 607.566 376.942 608.741 372.222L667.988 359.119C666.711 361.632 664.858 364.526 664.084 367.202L662.497 369.206Z"/>
	<path fill="#C449C2" transform="scale(0.407352 0.407352)" d="M326.58 605.036C325.538 601.585 325.185 598.042 325.261 594.441C325.434 586.327 330.46 577.086 336.296 571.589C344.134 564.207 351.94 562.259 362.477 562.558L365.164 588.112L368.925 626.492L370.566 644.111L371.709 657.103L373.224 674.833C369.467 674.578 365.79 673.809 362.25 672.506C353.537 669.299 350.724 663.038 347.034 655.202C342.932 654.858 338.64 653.316 335.056 651.351C329.656 648.391 324.699 642.695 323.09 636.651L322.926 636C322.568 634.655 322.211 633.346 322.094 631.952C321.19 621.151 326.489 615.103 333.098 607.481C331.324 606.983 328.483 606.681 327.078 605.495L326.58 605.036Z"/>
	<path fill="#FEFEFE" transform="scale(0.407352 0.407352)" d="M331.266 585.25L332.75 585.446C333.639 586.903 333.804 587.209 333.866 588.901L332.25 589.98C330.894 589.58 330.709 589.32 329.731 588.271C329.975 586.667 330.188 586.491 331.266 585.25Z"/>
	<path fill="#FEFEFE" transform="scale(0.407352 0.407352)" d="M337.219 611.75L338.5 611.945C339.828 613.002 339.804 613.14 340.25 614.797C339.498 616.547 339.279 616.848 337.75 617.978C336.101 617.881 335.255 617.706 334.075 616.5L334.136 614.508C335.032 613.111 335.781 612.559 337.219 611.75Z"/>
	<path fill="#FEFEFE" transform="scale(0.407352 0.407352)" d="M352.591 568.25C354.196 568.079 355.088 567.963 356.341 569.16C357.407 570.178 357.745 571.067 357.831 572.471C356.777 574.203 356.637 574.519 354.75 575.48C352.666 575.575 350.915 575.506 349.25 574.102C348.941 572.98 348.888 572.076 349.351 570.965C349.977 569.463 351.227 568.905 352.591 568.25Z"/>
	<path fill="#FEFEFE" transform="scale(0.407352 0.407352)" d="M341.78 577.25L342.025 577.21C343.624 577.063 344.609 576.944 345.861 578.139C346.826 579.061 347.493 580.675 347.489 582C347.481 584.471 345.916 586.254 344.15 587.75C343.758 587.843 343.136 588.013 342.744 588.002C341.44 587.963 340.786 587.215 339.972 586.314C338.295 584.456 338.439 582.619 338.608 580.25C339.455 578.664 340.237 578.137 341.78 577.25Z"/>
	<path fill="#FEFEFE" transform="scale(0.407352 0.407352)" d="M371.709 657.103L370.992 657.835C368.288 657.804 364.727 658.068 362.142 657.387C360.768 657.025 359.441 655.494 358.717 654.332C357.638 652.598 356.75 650.057 357.298 648.013C357.719 646.439 359.052 645.012 360.454 644.233C363.325 642.638 367.552 643.314 370.566 644.111L371.709 657.103Z"/>
	<path fill="#FEFEFE" transform="scale(0.407352 0.407352)" d="M331.131 624.75C332.156 624.57 333.319 624.338 334.343 624.619C336.471 625.204 338.273 627.374 339.399 629.154C340.888 631.508 341.972 634.57 341.217 637.357C340.607 639.611 339.344 640.706 337.35 641.75C336.336 641.954 335.026 642.084 334 642.011C331.935 641.864 330.3 640.531 329.148 638.902C327.158 636.088 326.719 632.516 327.517 629.215C328.061 626.969 329.238 625.936 331.131 624.75Z"/>
	<path transform="scale(0.407352 0.407352)" d="M351.858 622.01C353.846 619.234 355.34 617.079 358.75 616.003C361.374 616.206 363.076 617.106 364.835 619.109C365.683 620.076 366.025 621.102 366.527 622.25C366.688 622.616 367.229 623.898 367.49 624.069C367.522 626.526 367.497 629.408 366.135 631.559C365.273 632.921 364.03 633.58 362.44 633.75C359.656 634.048 357.245 633.088 355.282 631.169C352.478 628.427 351.958 625.82 351.858 622.01Z"/>
	<path fill="#8604AF" transform="scale(0.407352 0.407352)" d="M351.858 622.01C350.6 616.62 351.233 608.069 352.488 602.688C354.177 595.449 359.249 591.933 365.164 588.112L368.925 626.492L368.313 624.5L367.49 624.069C367.229 623.898 366.688 622.616 366.527 622.25C366.025 621.102 365.683 620.076 364.835 619.109C363.076 617.106 361.374 616.206 358.75 616.003C355.34 617.079 353.846 619.234 351.858 622.01Z"/>
	<path fill="#FEFEFE" transform="scale(0.407352 0.407352)" d="M401.526 840.048C400.76 839.186 400.777 839.085 400.608 838.005C398.998 827.725 398.711 816.812 397.82 806.416L392.322 743.1L378.448 583.614L355.05 357.969L362.618 360.967C363.277 361.229 364.819 361.611 365.25 362.014C365.667 362.404 365.803 363.013 366.08 363.512L366.84 372.25C366.94 374.18 366.755 375.866 367.255 377.75L367.496 379.737L367.627 380.315C368.155 382.712 368.156 385.141 368.682 387.503C369.42 390.814 369.092 394.268 369.447 397.625L372.326 432.163C372.416 433.416 372.644 434.194 373.25 435.293C375.808 435.414 379.029 433.894 381.422 432.989L382.246 436.201L373.342 438.483L377.409 480.75C377.82 485.399 377.837 490.563 378.693 495.109C379.019 496.84 378.832 498.559 379.17 500.296C379.408 501.521 379.274 502.54 379.117 503.76L397.705 723.335L403.638 795.53C404.549 806.337 404.691 817.591 406.568 828.268C407.059 831.058 408.3 833.17 410.407 835.058C413.078 837.45 416.951 839.502 420.472 840.197L437.272 845.75L437.015 846.25L435.75 846.326C436.638 846.937 437.019 846.933 438.044 847.103C443.064 847.938 447.525 849.212 452.684 849.401L455.25 851.235L451.963 851.54C440.68 851.253 428.043 848.728 417.312 845.329C412.537 843.816 406.428 840.38 401.526 840.048Z"/>
	<path transform="scale(0.407352 0.407352)" d="M367.496 379.737L367.627 380.315C368.155 382.712 368.156 385.141 368.682 387.503C369.42 390.814 369.092 394.268 369.447 397.625L372.326 432.163C372.416 433.416 372.644 434.194 373.25 435.293C375.808 435.414 379.029 433.894 381.422 432.989L382.246 436.201L373.342 438.483L377.409 480.75C377.82 485.399 377.837 490.563 378.693 495.109C379.019 496.84 378.832 498.559 379.17 500.296C379.408 501.521 379.274 502.54 379.117 503.76L367.496 379.737Z"/>
	<defs>
		<linearGradient id="gradient_0" gradientUnits="userSpaceOnUse" x1="656.62927" y1="666.51007" x2="455.7074" y2="624.6438">
			<stop offset="0" stop-color="#F30E11"/>
			<stop offset="1" stop-color="#FF2544"/>
		</linearGradient>
	</defs>
	<path fill="url(#gradient_0)" transform="scale(0.407352 0.407352)" d="M657.256 432.922C659.219 434.909 660.984 436.665 663.403 438.102L631.68 745.25L625.366 807.212L623.501 826.75C623.104 831.072 623.04 836.633 621.336 840.626C612.504 844.988 603.39 848.688 593.886 851.329C573.401 857.02 550.927 859.14 529.727 860.002C491.011 861.576 450.964 859.392 414.021 846.71C410.683 845.565 403.41 843.101 401.526 840.048C406.428 840.38 412.537 843.816 417.312 845.329C428.043 848.728 440.68 851.253 451.963 851.54L455.25 851.235L452.684 849.401L485.013 852.679C495.29 852.082 505.858 853.033 516.179 852.974C542.608 852.821 570.135 850.182 595.472 842.456C600.44 840.941 606.886 839.853 611.063 836.645C611.931 835.978 612.621 835.101 613.058 834.099C615.088 829.443 615.415 822.558 616.029 817.538L619.732 783.216L627.142 712.5L657.256 432.922Z"/>
	<path fill="#F3D3D7" transform="scale(0.407352 0.407352)" d="M452.684 849.401L485.013 852.679L483.25 852.899C473.473 854.281 461.707 853.001 451.963 851.54L455.25 851.235L452.684 849.401Z"/>
	<path fill="#9C0637" transform="scale(0.407352 0.407352)" d="M593.605 649.805C599.291 650.076 604.765 653.935 608.521 657.991C612.555 662.347 615.611 667.743 618.067 673.121C619.383 676.003 620.44 679.708 622.5 682.096C623.34 681.763 624.004 681.386 624.75 680.877C625.325 683.756 624.366 687.4 624.056 690.321L621.532 712.662L613.043 789.688L608.345 832.574C582.133 841.071 555.389 846.502 527.771 847.407L497.711 847.416C501.225 846.893 504.748 845.572 508.06 844.284C518.253 840.318 528.38 835.37 537.25 828.919C552.499 817.83 563.809 801.949 571.25 784.764C579.595 765.493 583.938 745.158 587.165 724.5L593.213 669.078L593.967 655.634C594.018 653.736 594.319 651.581 593.605 649.805Z"/>
	<path fill="#E37ECE" transform="scale(0.407352 0.407352)" d="M484.324 310.285L585.046 311.736L576.185 350.003L448.75 349.523L430.877 349.42C409.655 348.288 388.045 345.254 367.355 340.454C362.042 339.221 355.661 338.157 350.895 335.399C349.29 334.471 348.455 333.484 347.971 331.75C351.825 328.028 359.294 326.33 364.365 324.854C402.708 313.69 444.55 311.382 484.324 310.285Z"/>
	<path fill="#FEFEFE" transform="scale(0.407352 0.407352)" d="M419.523 316.75C422.304 316.268 425.443 316.475 428.25 316.633C429.285 317.874 429.421 318.163 429.727 319.75C428.688 321.312 428.49 321.703 426.75 322.567C424.414 322.99 421.133 323.036 419 321.88C417.733 321.194 417.264 320.578 416.835 319.25C417.736 317.705 418.023 317.577 419.523 316.75Z"/>
	<path fill="#FEFEFE" transform="scale(0.407352 0.407352)" d="M406.111 323.75C406.9 323.763 407.733 323.784 408.5 323.985C410.763 324.581 413.524 326.572 414.513 328.75C415.05 329.932 415.182 331.305 414.61 332.5C413.98 333.815 413.049 334.159 411.75 334.5C408.39 333.903 405.698 332.079 403.648 329.366C402.83 328.283 402.63 327.161 402.75 325.831C403.824 324.619 404.638 324.262 406.111 323.75Z"/>
	<path fill="#C449C2" transform="scale(0.407352 0.407352)" d="M451.433 253.848C452.002 254.32 452.053 254.419 452.816 254.75C454.278 255.384 457.369 255.044 459 255.008C463.803 254.903 469.28 253.202 472.174 249.119C473.873 246.72 474.62 243.883 475.998 241.325C477.54 238.462 480.435 235.985 483.325 234.551C488.941 231.764 495.707 230.972 501.92 232.279L502.5 232.412L503.562 232.651L504.5 232.901C507.08 233.564 509.337 234.331 511.609 235.756C514.633 237.237 519.739 240.921 522.873 240.905C528.655 247.477 530.788 254.53 531.589 263.117C531.844 265.859 531.906 268.522 533.168 271.042C534.634 273.97 537.74 276.578 540.063 278.856C546.485 282.834 550.441 289.053 553.544 295.774L382.121 305.037C381.296 301.73 380.227 298.337 379.688 294.977C378.284 286.229 379.66 277.114 383.44 269.125C388.189 259.086 395.94 251.662 406.353 247.806C412.924 245.373 420.128 245.552 426.5 248.536C430.011 250.18 433.298 252.36 437.005 253.579C441.225 254.967 446.473 254.895 450.803 253.988L451.433 253.848Z"/>
	<path fill="#FEFEFE" transform="scale(0.407352 0.407352)" d="M491.444 248.502L494.25 248.984C497.729 249.778 500.996 251.656 502.817 254.853C503.694 256.391 504.023 259.696 503.251 261.316C501.53 264.927 498.074 265.935 494.546 266.93C492.456 266.719 490.19 266.629 488.227 265.81C485.87 264.828 483.753 262.364 482.888 259.998C482.195 258.104 482.362 256.231 483.235 254.426C485 250.776 487.853 249.709 491.444 248.502Z"/>
	<path fill="#A51D80" transform="scale(0.407352 0.407352)" d="M511.609 235.756C514.633 237.237 519.739 240.921 522.873 240.905C528.655 247.477 530.788 254.53 531.589 263.117C531.844 265.859 531.906 268.522 533.168 271.042C534.634 273.97 537.74 276.578 540.063 278.856C536.515 278.363 532.967 276.528 529.492 275.521C523.651 273.829 517.5 273.213 511.46 272.748C516.054 262.453 520.416 255.097 515.777 243.678C514.651 240.906 512.428 238.518 511.609 235.756Z"/>
	<path fill="#FEFEFE" transform="scale(0.407352 0.407352)" d="M409.753 255.546C411.372 255.498 413.697 255.196 415.239 255.695C416.314 256.044 417.63 257.137 418.178 258.119C419.075 259.728 418.913 261.611 418.427 263.322C417.756 265.686 416.057 267.878 414.574 269.811C409.695 276.166 404.395 280.583 397.548 284.696L396.901 284.926C395.003 285.616 393.527 285.931 391.5 285.975C390.739 285.489 390.333 285.132 389.879 284.322C388.443 281.764 389.932 276.952 390.948 274.451C394.792 264.986 400.458 259.475 409.753 255.546Z"/>
	<path fill="#A5CCE2" transform="scale(0.407352 0.407352)" d="M366.08 363.512L367.5 362.525C370.957 363.154 374.216 364.392 377.642 365.151L412.418 371.679C446.705 376.48 481.69 378.701 516.308 378.303L569.307 376.367L559.622 417.009C503.865 413.594 446.073 416.835 391.687 430.218L391.155 432.597C391.529 436.182 391.942 439.799 391.981 443.406C391.99 444.278 392.207 446.12 391.975 446.9C391.216 449.452 387.892 453.095 386.167 455.22L385.225 456.354L382.246 436.201L381.422 432.989C379.029 433.894 375.808 435.414 373.25 435.293C372.644 434.194 372.416 433.416 372.326 432.163L369.447 397.625C369.092 394.268 369.42 390.814 368.682 387.503C368.156 385.141 368.155 382.712 367.627 380.315L367.496 379.737L367.255 377.75C366.755 375.866 366.94 374.18 366.84 372.25L366.08 363.512Z"/>
	<path fill="#FEFEFE" transform="scale(0.407352 0.407352)" d="M381.422 432.989C378.916 424.15 378.677 414.464 378.051 405.32L375.884 377.111C383.575 388.192 387.128 400.865 389.341 414.021C390.213 419.209 390.563 424.485 391.57 429.639L391.687 430.218L391.155 432.597C391.529 436.182 391.942 439.799 391.981 443.406C391.99 444.278 392.207 446.12 391.975 446.9C391.216 449.452 387.892 453.095 386.167 455.22L385.225 456.354L382.246 436.201L381.422 432.989Z"/>
	<path fill="#FE1B35" transform="scale(0.407352 0.407352)" d="M391.155 432.597C392.138 432.912 392.369 432.875 393.347 432.687C418.778 427.78 445.115 424.094 470.99 422.808C504.621 421.137 538.427 423.143 571.926 426.046C580.09 425.952 587.783 427.098 595.842 428.297C614.291 431.041 632.137 435.814 650.076 440.818L642.728 518.332C638.925 506.753 634.353 489.313 622.54 483.366C619.221 481.695 616.206 481.466 612.553 481.343C593.326 485.21 573.878 497.759 558.278 509.203C555.539 511.212 531.503 530.889 531.365 530.905C531.858 526.426 532.594 521.756 532.461 517.25C532.23 509.465 530.235 501.962 528.43 494.433C527.656 498.018 527.782 501.854 527.368 505.509C525.949 518.039 522.808 527.912 515.326 538.145L507.925 521.381C502.567 509.755 496.239 498.48 489.474 487.619C476.342 466.537 459.527 443.518 435.291 434.743C428.476 432.275 422.597 432.078 416.005 435.224C397.857 443.886 387.93 464.28 381.57 482.314C385.152 478.821 388.567 475.578 392.712 472.734C402.202 466.222 413.771 461.474 425.5 463.784L436.121 466.412L425.566 481.505C415.199 485.62 409.679 490.982 405.281 501.256C401.016 511.22 399.543 525.63 403.467 535.925C405.095 529.21 406.955 523.838 412.95 519.915L419.963 522.143C410.985 541.029 407.999 560.776 415.024 580.871C419.883 594.771 428.725 606.519 442.172 612.938C453.551 618.369 466.303 618.391 478.038 614.154C491.934 609.136 502.666 595.918 508.79 582.922C511.38 577.425 513.575 571.47 514.805 565.513L524.744 564.984C529.434 582.971 537.027 600.874 553.834 610.739C562.654 615.916 573.19 618.187 583.224 615.57C587.626 614.421 591.877 612.226 595.852 610.055C595.972 614.812 597.087 629.013 595.121 632.713C571.461 630.773 548.772 633.265 525.5 637.831C504.851 641.883 483.37 646.876 466.924 660.89C449.591 675.659 443.164 696.868 441.579 718.884C440.501 733.86 441.557 754.238 451.952 766.124C455.876 770.61 461.03 774.297 467.154 774.635C475.109 775.075 481.829 772.233 487.552 766.884C490.273 764.341 492.301 761.377 494.305 758.262C488.495 754.667 483.991 750.754 482.322 743.766C479.815 733.273 484.889 719.998 490.434 711.095C497.07 700.439 505.517 691.969 515.105 684.004C532.57 669.495 553.733 657.099 576.028 652.055C581.867 650.734 587.646 650.19 593.605 649.805C594.319 651.581 594.018 653.736 593.967 655.634L593.213 669.078L587.165 724.5C583.938 745.158 579.595 765.493 571.25 784.764C563.809 801.949 552.499 817.83 537.25 828.919C528.38 835.37 518.253 840.318 508.06 844.284C504.748 845.572 501.225 846.893 497.711 847.416C486.001 848.472 473.691 847.019 462.083 845.438C449.114 843.982 437.242 841.885 424.869 837.524C423.021 838.228 421.881 838.794 420.472 840.197C416.951 839.502 413.078 837.45 410.407 835.058C408.3 833.17 407.059 831.058 406.568 828.268C404.691 817.591 404.549 806.337 403.638 795.53L397.705 723.335L379.117 503.76C379.274 502.54 379.408 501.521 379.17 500.296C378.832 498.559 379.019 496.84 378.693 495.109C377.837 490.563 377.82 485.399 377.409 480.75L373.342 438.483L382.246 436.201L385.225 456.354L386.167 455.22C387.892 453.095 391.216 449.452 391.975 446.9C392.207 446.12 391.99 444.278 391.981 443.406C391.942 439.799 391.529 436.182 391.155 432.597Z"/>
	<path transform="scale(0.407352 0.407352)" d="M538.084 685.25C539.118 685.009 539.52 685.078 540.5 685.477L540.922 686.5C538.698 690.151 533.42 692.597 529.989 695.165C526.147 698.041 522.287 701.186 518.873 704.561C512.296 711.064 508.146 718.206 503.024 725.75L502.249 725.975C501.018 725.342 500.923 725.074 500.204 723.867C500.479 720.637 501.725 717.821 503.213 714.987C510.219 701.649 523.632 689.757 538.084 685.25Z"/>
	<path fill="#FEFEFE" transform="scale(0.407352 0.407352)" d="M424.869 837.524C421.493 835.074 418.397 832.659 416.169 829.041C414.97 827.094 413.986 824.663 413.604 822.409C411.236 808.434 410.78 793.647 409.483 779.5L402.145 699L398.211 654.745C398.124 654.069 398.155 654.294 398.349 653.5C399.083 655.318 398.899 657.224 399.307 659.13C401.816 670.853 402.743 683.364 404.401 695.259L415.017 771.591C416.973 785.68 417.254 801.629 422.963 814.748C426.83 823.634 433.43 830.249 441.429 835.569C444.623 837.693 448.063 839.52 451.593 841.022C454.688 842.338 459.68 843.142 462.083 845.438C449.114 843.982 437.242 841.885 424.869 837.524Z"/>
	<path fill="#9C0637" transform="scale(0.407352 0.407352)" d="M571.926 426.046C580.09 425.952 587.783 427.098 595.842 428.297C614.291 431.041 632.137 435.814 650.076 440.818L642.728 518.332C638.925 506.753 634.353 489.313 622.54 483.366C619.221 481.695 616.206 481.466 612.553 481.343C608.992 477.492 605.206 473.43 601.144 470.102C579.376 452.263 549.508 441.627 521.968 437.191C511.718 435.54 500.425 435.465 490.457 432.718L566.5 427.464C568.088 427.288 569.744 427.251 571.182 426.479L571.926 426.046Z"/>
</svg>
