<?xml version="1.0" encoding="utf-8" ?>
<svg xmlns="http://www.w3.org/2000/svg" xmlns:xlink="http://www.w3.org/1999/xlink" width="374" height="374">
	<path fill="#260149" transform="scale(0.365787 0.365787)" d="M797.588 803.032C802.205 804.031 807.046 804.703 811.599 803.055L816.411 801.588C814.746 804.544 813.021 807.134 809.577 808.18C807.346 808.857 803.635 808.609 801.66 807.325C799.993 806.242 798.701 804.649 797.588 803.032Z"/>
	<path fill="#260149" transform="scale(0.365787 0.365787)" d="M748.656 837.731C749.209 837.56 749.744 837.123 750.315 837.217C750.959 837.324 753.632 840.233 754.33 840.75C757.862 843.366 763.412 844.198 767.75 843.972C775.01 843.593 777.721 838.401 782.159 833.611C782 838.762 780.605 843.027 776.707 846.544C773.036 849.855 768.564 850.861 763.75 850.49C758.782 850.108 754.769 847.546 751.678 843.75C750.234 841.977 749.463 839.841 748.656 837.731Z"/>
	<path fill="#7705DC" transform="scale(0.365787 0.365787)" d="M797.588 803.032C797.335 801.723 797.03 800.355 797.08 799.016C797.2 795.772 798.277 793 800.713 790.805C802.823 788.904 805.299 788.023 808.156 788.232C810.879 788.432 812.79 789.269 814.466 791.446C817.05 794.801 816.96 797.628 816.411 801.588L811.599 803.055C807.046 804.703 802.205 804.031 797.588 803.032Z"/>
	<path fill="#E713C6" transform="scale(0.365787 0.365787)" d="M310.09 187.554C311.795 187.513 313.707 187.373 315.368 187.796C318.266 188.533 321.289 190.692 322.75 193.31C324.11 195.746 324.79 198.536 323.912 201.25C322.572 205.388 319.111 207.439 315.389 209.141C313.053 209.529 311.108 209.534 308.843 208.748C305.735 207.669 303.24 205.184 301.979 202.161C301.004 199.824 301.225 196.509 302.206 194.185C303.787 190.436 306.475 188.997 310.09 187.554Z"/>
	<path fill="#260149" transform="scale(0.365787 0.365787)" d="M182.546 306.146C185.058 306.019 187.689 306.014 190.055 306.988C193.147 308.262 195.412 310.873 196.667 313.927C198.056 317.307 197.798 321.34 196.223 324.605C194.355 328.478 190.79 330.168 186.891 331.408C184.746 331.487 182.561 331.623 180.5 330.911C177.577 329.902 174.879 327.227 173.568 324.453C172.042 321.223 171.817 317.214 173.188 313.89C174.954 309.608 178.496 307.773 182.546 306.146Z"/>
	<path fill="#50058A" transform="scale(0.365787 0.365787)" d="M192.368 312.676C193.7 314.982 193.89 317.868 193.367 320.47C192.864 322.973 190.309 325.119 188.186 326.282C186.415 327.251 184.269 327.56 182.329 326.936C179.944 326.17 176.949 324.433 175.948 322.019C175.042 319.836 175.694 317.553 176.46 315.438C177.768 317.429 179.624 321.067 181.75 322.095C184.112 322.092 186.246 322.255 188.398 321.066C191.086 319.582 191.641 315.358 192.368 312.676Z"/>
	<path fill="#9E12FB" transform="scale(0.365787 0.365787)" d="M176.46 315.438C177.108 314.046 178.02 312.674 179.056 311.537C180.833 309.587 182.953 308.414 185.625 308.454C188.7 308.5 190.437 310.575 192.368 312.676C191.641 315.358 191.086 319.582 188.398 321.066C186.246 322.255 184.112 322.092 181.75 322.095C179.624 321.067 177.768 317.429 176.46 315.438Z"/>
	<path fill="#7705DC" transform="scale(0.365787 0.365787)" d="M748.656 837.731C748.102 832.749 748.552 827.661 751.523 823.445C754.143 819.73 757.893 817.092 762.449 816.484C767.233 815.846 772.34 816.727 776.112 819.909C780.474 823.589 781.797 828.169 782.159 833.611C777.721 838.401 775.01 843.593 767.75 843.972C763.412 844.198 757.862 843.366 754.33 840.75C753.632 840.233 750.959 837.324 750.315 837.217C749.744 837.123 749.209 837.56 748.656 837.731Z"/>
	<path fill="#260149" transform="scale(0.365787 0.365787)" d="M251.992 203.599C256.753 202.991 261.505 203.712 265.836 205.81C270.83 208.23 274.385 212.917 276.152 218.096C278.083 223.758 277.541 229.971 274.772 235.25C271.845 240.829 266.37 244.1 260.563 245.933C256.124 247.111 250.298 246.083 246.218 244.009C241.228 241.472 237.439 236.435 235.83 231.151C234.016 225.192 234.761 218.665 237.873 213.307C241.142 207.678 245.974 205.201 251.992 203.599Z"/>
	<path fill="#50058A" transform="scale(0.365787 0.365787)" d="M271.013 217.447L271.736 218.672C273.481 222.153 273.396 228.09 272.056 231.757C270.689 235.5 267.228 238.563 263.694 240.237C259.589 242.182 254.11 242.698 249.828 241.049C245.499 239.381 242.368 236.367 240.466 232.153C238.081 226.87 237.939 222.634 240.055 217.289C241.844 222.019 242.786 228.936 247.956 231.275C252.072 233.137 258.264 233.007 262.421 231.312C265.781 229.943 268.392 226.961 269.694 223.62C270.276 222.126 270.44 220.562 270.714 218.997L271.013 217.447Z"/>
	<path fill="#7705DC" transform="scale(0.365787 0.365787)" d="M240.055 217.289C241.27 213.819 244.537 209.687 247.911 207.969L249 207.498L249.627 207.215C253.619 205.489 259.3 206.22 263.207 207.94C267.309 209.746 269.355 213.51 271.013 217.447L270.714 218.997C270.44 220.562 270.276 222.126 269.694 223.62C268.392 226.961 265.781 229.943 262.421 231.312C258.264 233.007 252.072 233.137 247.956 231.275C242.786 228.936 241.844 222.019 240.055 217.289Z"/>
	<path fill="#E713C6" transform="scale(0.365787 0.365787)" d="M656.547 206.277C672.054 214.07 687.542 221.853 702.201 231.181C720.452 242.793 736.656 256.328 752.612 270.866C759.941 277.544 768.619 284.932 774.46 292.931L774.101 293.978L776.25 296L776.255 296.75C774.301 296.112 774.263 295.288 772.75 294.255L772 293.877L771.375 293.502L770.875 293.875L770.622 293.5L770.25 292.755L769.875 293.375C768.957 292.763 769.277 293.042 768.516 292.284L768 291.755L767.375 292.375L766.75 291.755L766 292.5L765.25 291.755L764.5 292.5L763.875 292.002L763.375 292.375C762.632 291.821 763.075 292.059 762 291.755C760.526 292.734 757.327 292.253 755.5 292.255C754.364 291.497 753.337 291.755 752 291.755C750.755 290.925 749.177 291.255 747.695 291.255L735 291.255C733.939 291.96 733.237 291.752 732 291.755C730.799 292.553 729.422 292.253 728 292.255C726.939 292.96 726.237 292.752 725 292.755C723.394 293.822 719.284 293.254 717.25 293.255C716.81 294.135 717.033 293.77 716.625 294.375L715.5 293.255L714.875 293.875L713.875 293.002L713.375 293.375L713.122 293L712.75 292.255L712.375 292.875L711.875 292.502L711.5 292.75C710.504 292.757 710.371 292.549 709.625 291.875C708.677 291.019 707.921 290.308 706.866 289.57L705.985 289.839C686.053 274.189 663.847 260.846 640.784 250.326L656.547 206.277Z"/>
	<path fill="#E713C6" transform="scale(0.365787 0.365787)" d="M263.931 281.509L263.959 281.315C284.156 260.508 307.959 242.734 332.677 227.721C392.737 191.244 466.359 172.995 536.631 178.648C560.438 180.563 584.091 185.554 607.241 191.221L591.668 234.211C573.037 230.282 553.621 225.315 534.538 224.956C526.946 223.821 518.903 223.946 511.247 224.025C494.099 224.2 476.894 225.449 460.013 228.519L456.592 229.179L454.425 229.553C422.033 235.947 388.625 246.756 360.072 263.621L339.866 276.376C336.074 278.945 332.471 281.987 328.535 284.314L327.947 284.019C326.74 284.592 326.033 285.345 324.915 285.985C322.339 287.461 319.909 289.6 317.625 291.502L316.502 292.502C315.324 293.149 316.115 292.33 315.345 293.155C313.342 295.303 311.061 296.829 308.875 298.752C306.073 301.217 303.448 304.013 300.534 306.346C298.969 307.6 297.713 309.012 296.252 310.375L292.25 314.5L291.745 314.5L292.245 313.75C292.245 312.566 292.427 312.274 291.75 311.255C290.886 312.119 289.214 311.753 288 311.755C287.054 311.124 287.063 311.255 286 311.255C284.523 310.271 281.332 310.755 279.5 310.755C278.247 309.92 276.382 310.255 274.867 310.255L261 310.255C259.868 311.007 258.831 310.753 257.5 310.755C256.299 311.553 254.922 311.253 253.5 311.255C252.368 312.007 251.331 311.753 250 311.755C248.939 312.46 248.237 312.252 247 312.255L246.25 311.755L245.875 312.375L245.25 311.755L244.5 312.5L243.75 311.755L242.875 312.875C241.638 312.698 240.917 312.669 239.755 313.25L240.75 313.5C240.277 314.604 239.929 314.789 239 315.5L238.75 315L238.75 314.255L237.75 314.5C237.062 315.422 236.45 316.094 235.5 316.755C233.603 318.073 232.436 319.2 231.002 321.002L230.498 320.998L231.498 319.998L231.5 319.25L232.998 317.998L233 317.25L234.498 315.998L234.5 315.25L236.498 313.498L236.5 312.75C237.14 312.29 238.088 311.68 238.498 310.998C239.211 309.807 239.218 309.463 240.381 308.534C241.029 308.016 240.656 307.853 241 307.25C241.471 306.425 243.268 305.151 243.998 304.498L244.125 303.748C245.038 302.923 246.247 302.069 246.75 300.939C247.535 299.178 250.03 297.341 251.498 295.998L251.5 295.25L253.198 293.812L259.498 287.498C259.502 286.255 260.639 285.611 261.5 284.75L262.25 284.745C263.491 283.433 263.951 283.375 263.931 281.509Z"/>
	<defs>
		<linearGradient id="gradient_0" gradientUnits="userSpaceOnUse" x1="525.67352" y1="880.53088" x2="502.46338" y2="300.78967">
			<stop offset="0" stop-color="#350089"/>
			<stop offset="1" stop-color="#CB10B3"/>
		</linearGradient>
	</defs>
	<path fill="url(#gradient_0)" transform="scale(0.365787 0.365787)" d="M460.82 883.808C442.786 881.525 424.625 876.825 407.325 871.282C342.337 850.46 282.239 811.431 238.565 758.694C178.539 686.212 149.638 591.775 159.012 498C165.832 429.767 194.739 362.207 238.2 309.353C246.041 299.817 254.361 289.347 263.931 281.509C263.951 283.375 263.491 283.433 262.25 284.745L261.5 284.75C260.639 285.611 259.502 286.255 259.498 287.498L253.198 293.812L251.5 295.25L251.498 295.998C250.03 297.341 247.535 299.178 246.75 300.939C246.247 302.069 245.038 302.923 244.125 303.748L243.998 304.498C243.268 305.151 241.471 306.425 241 307.25C240.656 307.853 241.029 308.016 240.381 308.534C239.218 309.463 239.211 309.807 238.498 310.998C238.088 311.68 237.14 312.29 236.5 312.75L236.498 313.498L234.5 315.25L234.498 315.998L233 317.25L232.998 317.998L231.5 319.25L231.498 319.998L230.498 320.998L231.002 321.002C232.436 319.2 233.603 318.073 235.5 316.755C236.45 316.094 237.062 315.422 237.75 314.5L238.75 314.255L238.75 315L239 315.5C239.929 314.789 240.277 314.604 240.75 313.5L239.755 313.25C240.917 312.669 241.638 312.698 242.875 312.875L243.75 311.755L244.5 312.5L245.25 311.755L245.875 312.375L246.25 311.755L247 312.255C248.237 312.252 248.939 312.46 250 311.755C251.331 311.753 252.368 312.007 253.5 311.255C254.922 311.253 256.299 311.553 257.5 310.755C258.831 310.753 259.868 311.007 261 310.255L274.867 310.255C276.382 310.255 278.247 309.92 279.5 310.755C281.332 310.755 284.523 310.271 286 311.255C287.063 311.255 287.054 311.124 288 311.755C289.214 311.753 290.886 312.119 291.75 311.255C292.427 312.274 292.245 312.566 292.245 313.75L291.745 314.5L292.25 314.5L296.252 310.375C297.713 309.012 298.969 307.6 300.534 306.346C303.448 304.013 306.073 301.217 308.875 298.752C311.061 296.829 313.342 295.303 315.345 293.155C316.115 292.33 315.324 293.149 316.502 292.502L317.625 291.502C319.909 289.6 322.339 287.461 324.915 285.985C326.033 285.345 326.74 284.592 327.947 284.019L328.535 284.314L316.932 293.369C306.341 302.213 296.41 311.406 286.869 321.394C241.162 369.24 209.825 434.289 203.788 500.391C202.207 517.696 201.58 534.803 202.768 552.166C206.213 602.507 221.625 650.788 247.348 694.129C254.013 705.358 261.132 716.674 269.255 726.916L270.162 727.016C271.924 732.068 277.807 737.015 281.415 740.918C292.357 752.752 303.42 764.327 315.842 774.647C317.182 775.739 318.491 776.907 319.95 777.836L319.554 777.143C319.035 776.251 318.418 775.528 317.745 774.75L318.145 774.25C319.806 774.207 321.545 774.407 323.169 774.253C324.509 774.126 325.544 774.895 326.977 774.785C328.19 774.692 329.262 774.927 330.452 775.092L331.061 775.147C331.896 775.264 332.489 775.699 333.247 776.016C334.039 776.348 333.853 776.259 334.563 776.33C335.335 776.407 335.814 776.751 336.495 777.067C337.947 777.74 335.703 776.682 337.972 777.376L338.83 777.84L339.826 777.749C340.55 778.175 342.568 778.82 343.349 778.799C344.177 778.778 344.73 779.051 345.5 779.308L348.5 780.009C349.718 780.239 350.945 780.569 352.071 781.086C353.509 781.746 350.893 780.588 353.472 781.376L354.33 781.84L355.326 781.749C356.028 782.188 356.074 782.353 356.912 782.335C357.806 782.316 358.201 782.598 359.023 782.785L359.598 782.839C360.679 782.947 359.518 782.783 361.023 783.33C361.978 783.677 363.15 783.842 364.163 783.84C364.968 784.389 365.268 784.861 366.258 784.806C367.256 784.75 366.81 784.758 367.925 785.038L368.665 785.21L369.597 785.523C370.596 785.834 370.235 785.749 371.052 785.842C371.931 785.942 372.717 786.25 373.598 786.338C374.747 786.452 373.377 786.28 375.024 786.784C375.63 786.97 376.391 787.104 377.024 787.284L377.567 787.307C378.509 787.352 379.182 787.681 380.023 788.07C381.492 788.751 379.068 787.64 381.472 788.376L382.33 788.84L382.829 788.795C384.029 788.769 384.693 789.464 385.976 789.284C386.585 789.659 386.641 789.816 387.356 789.797C388.537 789.766 389.04 790.382 390.326 790.249C390.964 790.625 391.078 790.813 391.82 790.797C392.698 790.779 393.209 791.095 394.026 791.307L395.002 791.497L395.488 791.643C396.177 791.841 395.824 791.755 396.557 791.839C397.616 791.959 398.653 792.323 399.733 792.491L402.467 793.176L403.491 793.418C405.064 793.76 406.087 794.427 407.386 795.354L408.5 795.25L408.272 796.726L409.324 796.985C411.848 809.154 415.192 818.101 425.987 825.178C431.781 828.976 437.859 831.363 444.46 833.327C450.302 834.778 456.117 836.723 462 837.924C480.277 841.653 499.236 842.307 517.838 842.12C521.944 842.079 526.087 841.959 530.175 841.571L544.727 839.971C546.793 839.663 551.963 838.22 553.865 838.721C567.949 836.194 584.624 832.29 596.482 823.865C611.019 813.536 612.507 796.756 614.961 780.5L619.727 749.638L631.558 670.051C632.117 662.112 633.247 654.201 635.321 646.514L649.413 562.074L649.299 561.488C648.889 558.918 648.891 556.502 649.221 553.936L652.606 533.715L658.418 496.5L672.62 403.69L675.806 380.416C676.118 378.347 676.313 374.322 677.261 372.519C677.659 371.763 679.497 370.491 680.231 369.817C682.442 367.786 684.565 365.806 686.371 363.394C691.253 356.875 693.199 348.405 691.797 340.328C689.897 329.39 681.077 322.115 672.522 316.181L676.539 317.288C676.786 315.556 677.216 315.102 678.375 313.896L681.18 313.214C682.219 312.851 682.97 312.864 684.023 312.661C688.109 311.876 692.381 312.193 696.564 312.196C700.812 312.199 705.1 311.892 709.196 312.659C710.635 312.928 712.034 312.451 713.537 312.852C715.507 313.379 720.385 313.502 722.394 313.024C723.546 312.749 724.24 312.625 725.414 312.869C726.094 313.01 726.537 313.105 727.252 313.066L727.767 313.007L728.612 313.982C729.909 314.27 730.855 314.87 731.917 315.642C732.963 316.402 733.734 316.266 734.992 316.369C726.369 306.501 715.626 298.653 705.985 289.839L706.866 289.57C707.921 290.308 708.677 291.019 709.625 291.875C710.371 292.549 710.504 292.757 711.5 292.75L711.875 292.502L712.375 292.875L712.75 292.255L713.122 293L713.375 293.375L713.875 293.002L714.875 293.875L715.5 293.255L716.625 294.375C717.033 293.77 716.81 294.135 717.25 293.255C719.284 293.254 723.394 293.822 725 292.755C726.237 292.752 726.939 292.96 728 292.255C729.422 292.253 730.799 292.553 732 291.755C733.237 291.752 733.939 291.96 735 291.255L747.695 291.255C749.177 291.255 750.755 290.925 752 291.755C753.337 291.755 754.364 291.497 755.5 292.255C757.327 292.253 760.526 292.734 762 291.755C763.075 292.059 762.632 291.821 763.375 292.375L763.875 292.002L764.5 292.5L765.25 291.755L766 292.5L766.75 291.755L767.375 292.375L768 291.755L768.516 292.284C769.277 293.042 768.957 292.763 769.875 293.375L770.25 292.755L770.622 293.5L770.875 293.875L771.375 293.502L772 293.877L772.75 294.255C774.263 295.288 774.301 296.112 776.255 296.75L776.25 296L774.101 293.978L774.46 292.931C777.472 295.461 779.967 298.853 782.51 301.85L800.054 324.428C817.572 349.458 832.621 376.925 843.484 405.5C855.197 436.311 862.3 469.453 865.186 502.263C873.462 596.354 842.357 691.235 781.591 763.388C737.407 815.852 676.031 854.937 610.138 873.836C595.79 878.374 581.08 881.32 566.242 883.696C530.783 889.374 496.263 889.851 460.82 883.808Z"/>
	<path fill="#B96BF8" transform="scale(0.365787 0.365787)" d="M319.95 777.836L319.554 777.143C319.035 776.251 318.418 775.528 317.745 774.75L318.145 774.25C319.806 774.207 321.545 774.407 323.169 774.253C324.509 774.126 325.544 774.895 326.977 774.785C328.19 774.692 329.262 774.927 330.452 775.092L331.061 775.147C331.896 775.264 332.489 775.699 333.247 776.016C334.039 776.348 333.853 776.259 334.563 776.33C335.335 776.407 335.814 776.751 336.495 777.067C337.947 777.74 335.703 776.682 337.972 777.376L338.83 777.84L339.826 777.749C340.55 778.175 342.568 778.82 343.349 778.799C344.177 778.778 344.73 779.051 345.5 779.308L348.5 780.009C349.718 780.239 350.945 780.569 352.071 781.086C353.509 781.746 350.893 780.588 353.472 781.376L354.33 781.84L355.326 781.749C356.028 782.188 356.074 782.353 356.912 782.335C357.806 782.316 358.201 782.598 359.023 782.785L359.598 782.839C360.679 782.947 359.518 782.783 361.023 783.33C361.978 783.677 363.15 783.842 364.163 783.84C364.968 784.389 365.268 784.861 366.258 784.806C367.256 784.75 366.81 784.758 367.925 785.038L368.665 785.21L369.597 785.523C370.596 785.834 370.235 785.749 371.052 785.842C371.931 785.942 372.717 786.25 373.598 786.338C374.747 786.452 373.377 786.28 375.024 786.784C375.63 786.97 376.391 787.104 377.024 787.284L377.567 787.307C378.509 787.352 379.182 787.681 380.023 788.07C381.492 788.751 379.068 787.64 381.472 788.376L382.33 788.84L382.829 788.795C384.029 788.769 384.693 789.464 385.976 789.284C386.585 789.659 386.641 789.816 387.356 789.797C388.537 789.766 389.04 790.382 390.326 790.249C390.964 790.625 391.078 790.813 391.82 790.797C392.698 790.779 393.209 791.095 394.026 791.307L395.002 791.497L395.488 791.643C396.177 791.841 395.824 791.755 396.557 791.839C397.616 791.959 398.653 792.323 399.733 792.491L402.467 793.176L403.491 793.418C405.064 793.76 406.087 794.427 407.386 795.354L408.5 795.25L408.272 796.726L409.324 796.985C411.848 809.154 415.192 818.101 425.987 825.178C431.781 828.976 437.859 831.363 444.46 833.327C443.445 833.958 442.993 834.041 441.756 834.058C438.01 834.109 433.798 832.658 430.154 831.837C417.577 829.002 405.416 824.634 393.485 819.787C374.015 811.879 355.665 802.41 338 791.026C331.873 787.077 325.172 782.94 319.95 777.836Z"/>
	<path fill="#50058A" transform="scale(0.365787 0.365787)" d="M460.82 883.808C461.858 883.465 462.51 883.173 463.619 883.348L464.25 883.5L464.5 882.75C462.521 882.09 460.692 882.489 459 881.5L458.25 881L457.125 881.375C456.189 880.974 456.477 881.033 455.648 880.867L452.5 880.25L451.25 880L450.375 879.625C449.35 879.384 448.575 879.593 447.542 879.118L446.755 878.75C445.286 878.327 444.169 878.689 442.755 877.75L443 876.25L443.5 876.25C444.196 876.207 444.779 876.099 445.484 876.178L446.625 876.281L448.388 873.955L448.625 873.625L449.25 874.245L450 873.5L450.625 873.997L451 873.75C452.023 873.743 451.826 873.669 452.5 873L453.25 873.745L454 873L454.75 873.745L455.5 873L456.125 873.497L456.623 873L457 872.5L457.75 873.245L458.5 872.5L459.25 873.245L460 872.5L460.75 873.245L461.5 872.5L462.125 872.997L462.623 872.5L463 872L463.75 872.74L464.5 872L465.25 872.744L466 872L466.75 872.745L467.5 872L468.25 872.745L469 872L469.75 872.745L470.5 872L471.25 872.745L472 872L472.75 872.745L473.5 872C474.222 872.575 473.859 872.497 474.498 872.497L474.625 871.625L475.25 872.238L476 871.5L476.75 872.241L477.5 871.5L478.25 872.245L479 871.5L479.75 872.245L480.5 871.5L481.125 871.997L481.623 871.5L482 871L482.75 871.726L483.5 871L484.25 871.729L485 871L485.75 871.733L486.5 871L487.25 871.736L488 871L488.75 871.74L489.5 871L490.25 871.743L491 871L491.75 871.745L492.5 871L493.125 871.497L493.5 871.25L494.5 871.112L495.125 870.625L496.125 871.497L496.622 871L497 870.5L497.75 871.231L498.5 870.5L499.25 871.235L500 870.5L500.75 871.238L501.5 870.5L502.25 871.242L503.375 869.875L503.5 868.25C503.657 867.658 503.947 867.105 504.083 866.508L504.245 865.75L504.377 867.5C504.713 868.942 505.026 869.936 505.125 871.497L505.498 871.497C505.648 870.293 505.421 870.767 506 870L506.75 870.723L507.5 870L508.25 870.726L509 870L509.75 870.73L510.5 870L511.25 870.733L512 870L512.75 870.737L513.625 869.625L514.25 870.211L515 869.5L515.378 870L515.75 870.744L516.125 870.125L517.25 870.218L518 869.5L518.75 870.222L519.479 869.375L519.75 868.5L520.02 869.473C521.279 869.508 520.956 869.457 521.75 870.229L522.5 869.5L523.25 870.232L524 869.5L524.75 870.235L525.5 869.5L526.25 870.239L527 869.5L527.625 869.996L528.121 869.5L528.5 869L529.25 869.717L530 869L530.75 869.72L531.5 869L532.25 869.724L533 869L533.75 869.727L534.5 869L535.25 869.731L536 869L536.625 869.492L537.117 869L537.5 868.5L537.881 869L538.25 869.737L539.125 868.625L539.75 869.212L540.5 868.5L541.25 869.215L542 868.5L542.75 869.219L543.5 868.5L544.25 869.222L545 868.5L545.75 869.226L546.5 868.5L547.25 869.229L548 868.5L548.75 869.233L549.5 868.5L550.25 869.236L551 868.5L551.75 869.239L552.5 868.5C553.222 869.073 552.859 868.996 553.496 868.996L553.625 868.125L554.25 868.716L555 868L555.75 868.72L556.5 868L557.25 868.723L558 868L558.75 868.727L559.5 868L560.25 868.73L561 868L561.75 868.733L562.5 868L563.25 868.737L564 868L564.75 868.74L565.5 868L566.25 868.744L567 868L567.75 868.745L568.5 868L569.25 868.745L570 868L570.75 868.745L571.5 868L572.125 868.497C572.721 868.104 573.361 867.816 574 867.5L574.75 868.234L575.5 867.5L576.25 868.238L577 867.5L577.75 868.241L578.5 867.5L579.25 868.245L580 867.5L580.75 868.245L581.5 867.5L582.25 868.245L583 867.5C583.722 868.075 583.359 867.997 583.997 867.997L584.125 867.125L584.625 867.489L585.125 867.125C586.042 867.518 585.851 867.321 586.43 867.896L586.75 868.245L587.5 867.5L588.25 868.245L589 867.5L589.75 868.245L590.5 867.5L591.125 867.997C591.72 867.605 591.358 867.797 592.25 867.5L593.25 868.745L594 868L594.75 868.745L595.5 868L596.25 868.745L597 868L597.75 868.745L598.5 868L599.125 868.497C599.721 868.104 600.361 867.816 601 867.5L601.625 867.997C602.246 867.588 601.852 867.771 602.875 867.625C603.668 868.002 603.294 867.938 604.155 867.907C605.051 867.875 604.672 867.838 605.524 867.929L606 867.992L606.496 867.5L607.125 867.376L607.625 867.125L608.25 867.501L609.125 867.125L609.75 867.5L610.875 867.125C610.723 868.237 610.686 867.738 610.875 868.625L612.375 869.125C612.09 870.114 612.134 869.777 612.045 870.68L612 871.25C611.203 871.25 610.532 871.362 609.75 871.5C609.605 872.638 609.502 872.272 609.872 873.23L610.138 873.836C595.79 878.374 581.08 881.32 566.242 883.696C530.783 889.374 496.263 889.851 460.82 883.808Z"/>
	<path fill="#7705DC" transform="scale(0.365787 0.365787)" d="M619.727 749.638L620.032 749.668C622.348 750.29 628.073 745.855 630.241 744.472C646.547 734.067 662.584 720.55 675.272 705.888C690.265 688.562 703.269 669.993 720.355 654.501C731.641 644.269 743.89 636.382 757.298 629.293C764.295 625.594 771.368 622.067 779.13 620.324C774.531 625.082 769.426 629.336 764.939 634.2C753.662 646.424 746.302 661.388 746.503 678.296C746.614 687.683 749.188 697.101 752.326 705.884C754.027 710.647 755.889 715.519 758.644 719.785L742.357 740.528C736.271 747.738 729.539 754.552 722.685 761.04C712.372 770.801 701.062 779.453 689.438 787.575C676.209 796.818 662.099 805.558 647.447 812.391C637.534 817.015 627.195 820.603 616.919 824.311C596.47 831.69 576.918 837.231 555.25 839.755L553.865 838.721C567.949 836.194 584.624 832.29 596.482 823.865C611.019 813.536 612.507 796.756 614.961 780.5L619.727 749.638Z"/>
	<defs>
		<linearGradient id="gradient_1" gradientUnits="userSpaceOnUse" x1="738.45685" y1="717.82959" x2="731.77136" y2="311.23096">
			<stop offset="0" stop-color="#170049"/>
			<stop offset="1" stop-color="#66068F"/>
		</linearGradient>
	</defs>
	<path fill="url(#gradient_1)" transform="scale(0.365787 0.365787)" d="M672.522 316.181L676.539 317.288C676.786 315.556 677.216 315.102 678.375 313.896L681.18 313.214C682.219 312.851 682.97 312.864 684.023 312.661C688.109 311.876 692.381 312.193 696.564 312.196C700.812 312.199 705.1 311.892 709.196 312.659C710.635 312.928 712.034 312.451 713.537 312.852C715.507 313.379 720.385 313.502 722.394 313.024C723.546 312.749 724.24 312.625 725.414 312.869C726.094 313.01 726.537 313.105 727.252 313.066L727.767 313.007L728.612 313.982C729.909 314.27 730.855 314.87 731.917 315.642C732.963 316.402 733.734 316.266 734.992 316.369C792.317 373.566 822.809 451.701 822.748 532.241C822.706 587.96 807.226 644.479 777.95 691.975C772.017 701.601 765.249 710.622 758.644 719.785C755.889 715.519 754.027 710.647 752.326 705.884C749.188 697.101 746.614 687.683 746.503 678.296C746.302 661.388 753.662 646.424 764.939 634.2C769.426 629.336 774.531 625.082 779.13 620.324C771.368 622.067 764.295 625.594 757.298 629.293C743.89 636.382 731.641 644.269 720.355 654.501C703.269 669.993 690.265 688.562 675.272 705.888C662.584 720.55 646.547 734.067 630.241 744.472C628.073 745.855 622.348 750.29 620.032 749.668L619.727 749.638L631.558 670.051C632.117 662.112 633.247 654.201 635.321 646.514L649.413 562.074L649.299 561.488C648.889 558.918 648.891 556.502 649.221 553.936L652.606 533.715L658.418 496.5L672.62 403.69L675.806 380.416C676.118 378.347 676.313 374.322 677.261 372.519C677.659 371.763 679.497 370.491 680.231 369.817C682.442 367.786 684.565 365.806 686.371 363.394C691.253 356.875 693.199 348.405 691.797 340.328C689.897 329.39 681.077 322.115 672.522 316.181Z"/>
	<path fill="#FEFEFE" transform="scale(0.365787 0.365787)" d="M683.696 441.25C684.616 441.029 685.267 440.929 686.214 441.102C688.318 441.487 690.754 442.458 691.944 444.355C693.024 446.078 692.911 448.126 692.488 450.032C691.893 452.711 689.767 453.925 687.565 455.24C686.505 455.396 685.315 455.582 684.25 455.359C682.624 455.019 680.996 453.839 680.045 452.5C678.704 450.612 677.927 448.115 678.646 445.81C679.347 443.569 681.803 442.291 683.696 441.25Z"/>
	<path fill="#FEFEFE" transform="scale(0.365787 0.365787)" d="M690.581 511.526C688.366 509.013 687.102 506.576 687.441 503.137C687.671 500.804 688.858 498.61 690.671 497.147C692.61 495.582 695.299 494.641 697.797 495.064C700.262 495.482 702.63 497.303 703.931 499.407C705.212 501.48 705.283 504.241 704.628 506.536C704.144 508.231 703.231 509.745 702.331 511.245C698.255 512.502 694.704 512.983 690.581 511.526Z"/>
	<path fill="#FEFEFE" transform="scale(0.365787 0.365787)" d="M764.123 653.75C766.02 653.395 767.562 653.614 769.392 654.214C771.864 655.025 773.906 656.77 774.967 659.166C775.974 661.444 775.731 665.305 774.734 667.544C773.616 670.051 771.093 671.524 768.659 672.507C767.144 672.563 765.432 672.701 763.957 672.305C761.535 671.653 759.142 669.475 758.036 667.25C756.82 664.804 756.685 661.443 757.796 658.952C758.987 656.283 761.537 654.785 764.123 653.75Z"/>
	<path fill="#7705DC" transform="scale(0.365787 0.365787)" d="M775.142 489.585C779.703 488.916 784.66 489.278 788.908 491.075C794.597 493.482 799.893 498.82 801.942 504.75C803.832 510.22 803.227 517.222 800.543 522.33C796.775 529.5 791.268 533.233 783.632 535.69C778.54 536.792 771.049 535.511 766.581 532.903C761.59 529.991 757.797 524.541 756.411 518.962C754.878 512.788 756.11 504.895 759.364 499.475C763.03 493.368 768.52 491.131 775.142 489.585Z"/>
	<defs>
		<linearGradient id="gradient_2" gradientUnits="userSpaceOnUse" x1="779.20892" y1="527.54071" x2="779.79071" y2="495.97772">
			<stop offset="0" stop-color="#B936EC"/>
			<stop offset="1" stop-color="#E68AFB"/>
		</linearGradient>
	</defs>
	<path fill="url(#gradient_2)" transform="scale(0.365787 0.365787)" d="M777.659 495.585C780.256 495.464 782.439 495.396 784.96 496.215L785.75 496.483L787.841 497.176C791.682 498.723 795.358 502.387 796.795 506.275C798.271 510.272 797.893 515.666 795.861 519.44C793.172 524.432 788.264 526.931 783.131 528.637C778.847 528.601 775.163 528.639 771.197 526.715C767.57 524.955 764.322 521.613 763.041 517.726L762.841 517.079L762.357 515.554C761.404 511.967 761.88 506.93 763.883 503.79C767.265 498.486 771.879 496.964 777.659 495.585Z"/>
	<path fill="#FEFEFE" transform="scale(0.365787 0.365787)" d="M780.465 499.497C781.506 499.621 782.592 499.725 783.591 500.062C785.532 500.719 787.369 502.988 788.105 504.869C788.807 506.663 788.846 509.761 787.92 511.481C786.153 514.764 784.073 515.647 780.65 516.708C779.76 516.642 778.768 516.603 777.922 516.286C775.601 515.416 773.867 513.111 772.962 510.889C772.105 508.784 771.899 506.589 772.926 504.5C774.363 501.576 777.65 500.58 780.465 499.497Z"/>
	<path fill="#9E12FB" transform="scale(0.365787 0.365787)" d="M738.989 421.571C744.384 420.971 749.311 421.685 754.235 424.055C760.046 426.851 764.883 433.016 766.817 439.128C768.593 444.739 767.408 451.275 764.535 456.281C760.721 462.93 755.204 466.367 747.942 468.42C742.584 469.183 736.459 469.091 731.514 466.607C726.07 463.873 721.978 458.741 720.146 452.969C718.103 446.535 718.806 439.504 722.139 433.609C725.936 426.892 731.776 423.621 738.989 421.571Z"/>
	<defs>
		<linearGradient id="gradient_3" gradientUnits="userSpaceOnUse" x1="742.68427" y1="460.01562" x2="742.43335" y2="438.88797">
			<stop offset="0" stop-color="#C64BEF"/>
			<stop offset="1" stop-color="#DC76FE"/>
		</linearGradient>
	</defs>
	<path fill="url(#gradient_3)" transform="scale(0.365787 0.365787)" d="M726.773 437.125C729.826 432.173 733.939 429.817 739.5 428.55C744.067 427.509 749.095 427.991 753.043 430.66C755.438 432.279 757.144 434.747 758.447 437.285C760.167 440.398 760.99 443.838 760.069 447.35C758.874 451.906 755.836 456.46 751.68 458.783C746.819 461.499 741.019 461.574 735.822 459.902C732.144 458.719 728.458 455.71 726.808 452.169C724.827 447.919 724.84 444.45 725.468 439.866L726.773 437.125Z"/>
	<path fill="#D3B8E8" transform="scale(0.365787 0.365787)" d="M726.773 437.125C728.965 438.181 729.967 439.149 731.308 441.172L731.299 441.2C730.2 442.537 729.941 442.947 728.25 443.444C726.971 442.274 726.296 441.389 725.468 439.866L726.773 437.125Z"/>
	<path fill="#FEFEFE" transform="scale(0.365787 0.365787)" d="M726.773 437.125C729.826 432.173 733.939 429.817 739.5 428.55C744.067 427.509 749.095 427.991 753.043 430.66C755.438 432.279 757.144 434.747 758.447 437.285C757.567 441.556 756.746 444.985 752.747 447.426C750.666 448.697 747.436 448.962 745.113 448.367C743.125 447.858 741.18 445.745 740.246 443.998C739.646 442.875 739.289 441.673 738.985 440.444C737.121 439.358 734.989 438.612 733.001 437.771C732.391 438.889 731.768 439.982 731.308 441.172C729.967 439.149 728.965 438.181 726.773 437.125Z"/>
	<path fill="#D3B8E8" transform="scale(0.365787 0.365787)" d="M733.001 437.771C734.721 435.391 736.796 431.449 739.75 430.92C740.599 431.964 740.991 432.197 740.89 433.614C740.732 435.825 739.546 438.27 738.985 440.444C737.121 439.358 734.989 438.612 733.001 437.771Z"/>
	<path fill="#E713C6" transform="scale(0.365787 0.365787)" d="M690.581 511.526C694.704 512.983 698.255 512.502 702.331 511.245L702.178 511.97C701.722 514.048 701.249 516.024 699.922 517.75C697.284 521.183 693.209 523.704 689.75 526.23C683.192 531.019 676.883 537.281 675.901 545.75C675.478 549.397 676.149 552.931 678.129 556.042C683.492 564.464 692.202 568.199 701.62 570.091C715.671 572.913 728.442 568.997 740.159 561.127L761.953 546.746C750.89 558.972 735.973 573.312 736.985 591.25L737.414 594.5L737.526 595.181C738.504 600.694 742.615 605.88 747.141 609.029C755.84 615.08 766.354 615.595 776.5 614.095L777.348 613.976C785.233 612.783 793.404 609.395 801.097 607.13L787.484 615.503C784.784 617.12 781.999 619.075 779.13 620.324C771.368 622.067 764.295 625.594 757.298 629.293C743.89 636.382 731.641 644.269 720.355 654.501C703.269 669.993 690.265 688.562 675.272 705.888C662.584 720.55 646.547 734.067 630.241 744.472C628.073 745.855 622.348 750.29 620.032 749.668L619.727 749.638L631.558 670.051C632.117 662.112 633.247 654.201 635.321 646.514L649.413 562.074C655.381 552.079 662.169 542.978 670.462 534.772L683.397 522.903C686.267 520.085 690.54 515.778 690.581 511.526Z"/>
	<path fill="#50058A" transform="scale(0.365787 0.365787)" d="M655.532 617.458C653.32 614.038 654.659 606.63 654.983 602.678C655.673 602.71 656.466 606.284 657.75 606.786C658.761 605.47 658.646 604.096 658.707 602.514C659.617 604.355 661.348 607.551 663.357 608.363C665.389 609.184 669.376 608.448 671.112 607.25C672.505 606.288 673.718 605.113 674.843 603.856C676.467 606.42 676.271 609.555 675.681 612.434C674.885 616.324 673.476 620.551 670.492 623.297C669.994 621.486 669.515 619.315 668.433 617.75C667.302 616.116 665.928 615.228 664 614.854C660.705 614.214 658.152 615.699 655.532 617.458Z"/>
	<path fill="#FEFEFE" transform="scale(0.365787 0.365787)" d="M658.707 602.514C657.816 597.667 658.019 592.608 656.986 587.837C656.217 584.284 654.884 580.782 653.784 577.32C653.485 576.381 652.567 574.441 652.569 573.512C652.573 572.025 654.359 569.328 655.201 568.154C656.419 566.455 658.109 564.913 660.25 564.57C662.818 564.158 665.063 564.418 667.103 566.127C669.608 568.225 670.836 571.889 671.674 574.952C673.478 581.55 674.628 588.366 674.97 595.202L674.843 603.856C673.718 605.113 672.505 606.288 671.112 607.25C669.376 608.448 665.389 609.184 663.357 608.363C661.348 607.551 659.617 604.355 658.707 602.514Z"/>
	<path fill="#FEFEFE" transform="scale(0.365787 0.365787)" d="M655.532 617.458C658.152 615.699 660.705 614.214 664 614.854C665.928 615.228 667.302 616.116 668.433 617.75C669.515 619.315 669.994 621.486 670.492 623.297C667.472 632.085 662.506 639.222 656.727 646.427C649.582 655.334 641.206 663.863 631.558 670.051C632.117 662.112 633.247 654.201 635.321 646.514C643.81 638.113 649.077 627.317 655.532 617.458Z"/>
	<path fill="#260149" transform="scale(0.365787 0.365787)" d="M607.241 191.221L618.049 161C620.349 154.481 621.918 147.018 625.408 141.04C626.718 138.797 628.461 137.106 630.763 135.9C637.07 132.598 642.759 135.07 648.937 137.187C656.726 139.855 669.677 142.252 673.586 150C675.696 154.182 674.452 158.777 673.019 162.962L656.547 206.277L640.784 250.326C663.847 260.846 686.053 274.189 705.985 289.839C715.626 298.653 726.369 306.501 734.992 316.369C733.734 316.266 732.963 316.402 731.917 315.642C730.855 314.87 729.909 314.27 728.612 313.982L727.767 313.007L727.252 313.066C726.537 313.105 726.094 313.01 725.414 312.869C724.24 312.625 723.546 312.749 722.394 313.024C720.385 313.502 715.507 313.379 713.537 312.852C712.034 312.451 710.635 312.928 709.196 312.659C705.1 311.892 700.812 312.199 696.564 312.196C692.381 312.193 688.109 311.876 684.023 312.661C682.97 312.864 682.219 312.851 681.18 313.214L678.375 313.896C677.216 315.102 676.786 315.556 676.539 317.288L672.522 316.181C681.077 322.115 689.897 329.39 691.797 340.328C693.199 348.405 691.253 356.875 686.371 363.394C684.565 365.806 682.442 367.786 680.231 369.817C679.497 370.491 677.659 371.763 677.261 372.519C676.313 374.322 676.118 378.347 675.806 380.416L672.62 403.69L658.418 496.5L652.606 533.715L649.221 553.936C648.891 556.502 648.889 558.918 649.299 561.488L649.413 562.074L635.321 646.514C633.247 654.201 632.117 662.112 631.558 670.051L619.727 749.638L614.961 780.5C612.507 796.756 611.019 813.536 596.482 823.865C584.624 832.29 567.949 836.194 553.865 838.721C551.963 838.22 546.793 839.663 544.727 839.971L530.175 841.571C526.087 841.959 521.944 842.079 517.838 842.12C499.236 842.307 480.277 841.653 462 837.924C456.117 836.723 450.302 834.778 444.46 833.327C437.859 831.363 431.781 828.976 425.987 825.178C415.192 818.101 411.848 809.154 409.324 796.985L408.272 796.726L408.5 795.25L407.386 795.354C406.087 794.427 405.064 793.76 403.491 793.418L402.467 793.176L399.733 792.491C398.653 792.323 397.616 791.959 396.557 791.839C395.824 791.755 396.177 791.841 395.488 791.643L395.002 791.497L394.026 791.307C393.209 791.095 392.698 790.779 391.82 790.797C391.078 790.813 390.964 790.625 390.326 790.249C389.04 790.382 388.537 789.766 387.356 789.797C386.641 789.816 386.585 789.659 385.976 789.284C384.693 789.464 384.029 788.769 382.829 788.795L382.33 788.84L381.472 788.376C379.068 787.64 381.492 788.751 380.023 788.07C379.182 787.681 378.509 787.352 377.567 787.307L377.024 787.284C376.391 787.104 375.63 786.97 375.024 786.784C373.377 786.28 374.747 786.452 373.598 786.338C372.717 786.25 371.931 785.942 371.052 785.842C370.235 785.749 370.596 785.834 369.597 785.523L368.665 785.21L367.925 785.038C366.81 784.758 367.256 784.75 366.258 784.806C365.268 784.861 364.968 784.389 364.163 783.84C363.15 783.842 361.978 783.677 361.023 783.33C359.518 782.783 360.679 782.947 359.598 782.839L359.023 782.785C358.201 782.598 357.806 782.316 356.912 782.335C356.074 782.353 356.028 782.188 355.326 781.749L354.33 781.84L353.472 781.376C350.893 780.588 353.509 781.746 352.071 781.086C350.945 780.569 349.718 780.239 348.5 780.009L345.5 779.308C344.73 779.051 344.177 778.778 343.349 778.799C342.568 778.82 340.55 778.175 339.826 777.749L338.83 777.84L337.972 777.376C335.703 776.682 337.947 777.74 336.495 777.067C335.814 776.751 335.335 776.407 334.563 776.33C333.853 776.259 334.039 776.348 333.247 776.016C332.489 775.699 331.896 775.264 331.061 775.147L330.452 775.092C329.262 774.927 328.19 774.692 326.977 774.785C325.544 774.895 324.509 774.126 323.169 774.253C321.545 774.407 319.806 774.207 318.145 774.25L317.745 774.75C318.418 775.528 319.035 776.251 319.554 777.143L319.95 777.836C318.491 776.907 317.182 775.739 315.842 774.647C303.42 764.327 292.357 752.752 281.415 740.918C277.807 737.015 271.924 732.068 270.162 727.016L269.255 726.916C261.132 716.674 254.013 705.358 247.348 694.129C221.625 650.788 206.213 602.507 202.768 552.166C201.58 534.803 202.207 517.696 203.788 500.391C209.825 434.289 241.162 369.24 286.869 321.394C296.41 311.406 306.341 302.213 316.932 293.369L328.535 284.314C332.471 281.987 336.074 278.945 339.866 276.376L360.072 263.621C388.625 246.756 422.033 235.947 454.425 229.553L456.592 229.179L460.013 228.519C476.894 225.449 494.099 224.2 511.247 224.025C518.903 223.946 526.946 223.821 534.538 224.956C553.621 225.315 573.037 230.282 591.668 234.211L607.241 191.221Z"/>
	<path fill="#9E12FB" transform="scale(0.365787 0.365787)" d="M651.566 335.774C637.45 342.5 620.15 345.209 604.755 347.599L613.024 324.817C614.053 321.87 615.037 316.368 617.5 314.547L619.358 315.157C617.099 316.549 616.481 318.472 615.501 320.84C620.114 323.274 625.17 323.76 630.065 325.449C637.739 328.096 644.504 331.861 651.566 335.774Z"/>
	<path fill="#9E12FB" transform="scale(0.365787 0.365787)" d="M566.673 399.311L579 397.863C571.469 421.786 561.589 445.359 552.649 468.807L546.172 485.556C545.536 487.155 544.804 489.965 543.653 491.138L536.329 486.702L547.712 455.102C548.372 454.803 566.526 405.54 568.618 400L568.25 399.263L566.673 399.311Z"/>
	<path fill="#FEFEFE" transform="scale(0.365787 0.365787)" d="M456.491 759.791C457.621 754.551 459.602 749.212 464.061 745.852C468.453 742.542 473.323 742.513 478.479 743.147C483.827 745.338 487.876 747.794 490.202 753.433C491.944 757.655 492.797 763.802 491.633 768.25L491.432 769.066C490.156 774.117 487.595 779.199 482.875 781.848C478.807 784.131 474.494 784.4 470.099 783.046C465.314 781.573 460.953 776.748 458.751 772.415C456.844 768.664 456.395 763.921 456.491 759.791Z"/>
	<path fill="#9E12FB" transform="scale(0.365787 0.365787)" d="M566.673 399.311L568.25 399.263L568.618 400C566.526 405.54 548.372 454.803 547.712 455.102L536.329 486.702L528.622 482.45C526.686 481.502 524.87 480.1 523.071 478.905C523.697 476.909 525.057 475.033 525.957 473.124C527.402 470.062 528.54 466.84 529.716 463.667L553.381 399.975L561.038 399.666L566.673 399.311Z"/>
	<path fill="#FEFEFE" transform="scale(0.365787 0.365787)" d="M541.753 449.675C542.496 451.37 541.514 453.027 540.842 454.719L539.77 457.297C541.584 458.42 543.269 458.499 545.25 459.5C545.707 458.625 545.995 457.938 546.25 457C546.499 456.085 546.746 455.506 547.256 454.702L547.712 455.102L536.329 486.702L528.622 482.45C530.293 479.43 531.379 475.57 532.679 472.34L541.753 449.675Z"/>
	<path fill="#D3B8E8" transform="scale(0.365787 0.365787)" d="M566.673 399.311L568.25 399.263L568.618 400C566.526 405.54 548.372 454.803 547.712 455.102L547.256 454.702C546.746 455.506 546.499 456.085 546.25 457C545.995 457.938 545.707 458.625 545.25 459.5C543.269 458.499 541.584 458.42 539.77 457.297L540.842 454.719C541.514 453.027 542.496 451.37 541.753 449.675C543.092 443.931 545.831 438.294 547.961 432.8L561.038 399.666L566.673 399.311Z"/>
	<path fill="#7705DC" transform="scale(0.365787 0.365787)" d="M655.699 155.076L660.419 157.082C655.213 176.797 647.393 196.071 640.86 215.4L599.74 337.253C599.076 339.253 596.715 348.125 595.231 348.753L587.827 350.033L655.699 155.076Z"/>
	<path fill="#50058A" transform="scale(0.365787 0.365787)" d="M672.522 316.181C671.613 316.241 668.374 314.073 667.294 313.512C663.523 311.555 659.504 309.819 655.591 308.17C645.546 303.935 634.487 300.775 623.942 298.054L640.784 250.326C663.847 260.846 686.053 274.189 705.985 289.839C715.626 298.653 726.369 306.501 734.992 316.369C733.734 316.266 732.963 316.402 731.917 315.642C730.855 314.87 729.909 314.27 728.612 313.982L727.767 313.007L727.252 313.066C726.537 313.105 726.094 313.01 725.414 312.869C724.24 312.625 723.546 312.749 722.394 313.024C720.385 313.502 715.507 313.379 713.537 312.852C712.034 312.451 710.635 312.928 709.196 312.659C705.1 311.892 700.812 312.199 696.564 312.196C692.381 312.193 688.109 311.876 684.023 312.661C682.97 312.864 682.219 312.851 681.18 313.214L678.375 313.896C677.216 315.102 676.786 315.556 676.539 317.288L672.522 316.181Z"/>
	<path fill="#9E12FB" transform="scale(0.365787 0.365787)" d="M577.143 351.128L561.31 352.134L561.201 351.702L599.557 249.016L621.46 189.553L629.256 167.982C630.919 163.057 632.325 157.904 634.251 153.086C634.967 151.294 635.693 150.279 637.365 149.28C643.752 149.407 649.92 152.597 655.699 155.076L587.827 350.033L579.207 350.983L577.143 351.128Z"/>
	<path fill="#FEFEFE" transform="scale(0.365787 0.365787)" d="M577.143 351.128L572.75 351.117C571.92 349.872 572.287 349.279 572.561 347.803C573.751 341.404 577.033 334.527 579.243 328.368L594.337 286.415L621.038 211.969L638.107 164.069C639.031 161.726 639.945 159.559 641.592 157.616C643.05 157.281 643.312 157.395 644.75 157.866C645.779 158.988 646.485 159.625 646.374 161.25C646.169 164.266 644.421 167.895 643.381 170.705L638.303 184.869L617.98 241.779L594.307 309.818C589.485 323.652 584.98 337.5 579.207 350.983L577.143 351.128Z"/>
	<path fill="#50058A" transform="scale(0.365787 0.365787)" d="M445.414 763.734L445.65 763.045C446.377 760.619 447.392 758.964 449.13 757.096L449.527 756.694C449.597 755.805 449.583 755.206 450.115 754.451L450.541 753.904C451.932 751.662 453.768 749.956 455.091 747.839L457.237 744.672C458.149 743.532 458.86 742.308 459.738 741.163L460.728 739.976C461.858 738.14 463.469 736.121 464.372 734.197C464.669 733.563 464.942 733.078 465.346 732.505L473.125 721.088L480.057 711.439L481.896 708.974L485.057 704.439L486.896 701.974L493.58 692.556C494.921 691.028 495.834 689.385 497.044 687.775C497.554 687.097 498 686.532 498.359 685.753C498.844 684.7 499.171 683.88 500.123 683.154L500.638 682.809C500.854 681.951 501.019 681.353 501.676 680.722L502.705 679.791C503.953 678.597 503.806 676.987 503.838 675.382L503.846 674.79L505.463 674.829C506.352 674.041 507.703 673.048 508.225 671.976C508.992 670.4 510.415 669.53 510.949 668.005C511.471 666.51 512.711 666.139 513.373 664.74C513.779 663.884 513.48 664.205 514.224 663.591C515.428 662.598 515.671 661.462 516.646 660.455L517.036 660.065L517.67 659.074C519.299 657.294 518.96 656.396 520.076 654.58C521.545 652.187 524.105 650.004 525.529 647.404L526.171 646.077L529.557 641.76C530.227 640.871 530.773 639.393 531.552 638.735C532.148 638.23 532.604 637.689 532.996 637C533.385 636.314 533.429 635.761 534.052 635.235C534.648 634.73 535.104 634.189 535.496 633.5C535.885 632.814 535.929 632.261 536.552 631.735C537.148 631.23 537.604 630.689 537.996 630C538.381 629.322 538.427 628.765 539.042 628.245C539.658 627.724 540.284 627.078 540.649 626.345C541.221 625.194 541.085 624.739 542.108 623.825C542.764 623.239 542.999 623.058 543.394 622.224C543.769 621.434 543.473 621.726 544.042 621.245C545.469 620.038 545.521 618.583 546.606 617.392C548.349 615.479 549.54 612.891 551.139 610.859L562.146 595.804C563.921 593.55 565.272 590.793 567.123 588.586L574.051 578.952L575.992 576.267L576.997 574.998C578.72 572.077 580.867 569.455 582.671 566.577C583.334 565.518 584.337 564.934 584.89 563.735C585.379 562.673 585.654 561.893 586.623 561.154L587.138 560.809C587.609 559.591 588.055 558.469 589.123 557.654L589.638 557.309C590.109 556.091 590.555 554.969 591.623 554.154L592.138 553.809C592.597 552.618 593.128 551.249 594.111 550.404C595.211 549.459 595.437 548.058 596.623 547.155L597.138 546.809C598.22 544.015 600.376 541.856 602.011 539.393C602.908 538.043 604.14 536.386 605.21 535.185C606.258 534.01 607.502 532.3 608.634 531.259L609.138 530.85L610.566 529.55C611.604 528.957 611.486 529.005 612.141 527.891L613 528.5L613.339 531.069L608.036 563.264C607.287 567.79 605.922 572.725 605.75 577.285L605.185 577.25L605.107 575.25L604.5 574.865L604.183 575.171C601.878 577.31 598.892 577.81 596.591 580.091C592.866 583.785 588.809 588.866 586.364 593.483C583.921 598.097 582.217 602.868 579.165 607.161L520.3 688.265C518.396 691.392 515.452 694.028 513.024 696.768C510.014 700.163 507.681 703.598 504.077 706.5L503.963 707.169C503.164 710.116 498.81 713.437 496.655 715.562C490.776 721.363 485.036 727.49 480.274 734.267C479.112 735.921 477.513 738.94 477.622 741C477.65 741.523 478.267 742.614 478.479 743.147C473.323 742.513 468.453 742.542 464.061 745.852C459.602 749.212 457.621 754.551 456.491 759.791C453.663 759.303 451.215 759.599 448.847 761.349C447.768 762.146 447.206 762.623 447.068 764.014C446.864 766.072 446.997 769.042 447.625 771.008C448.042 772.312 447.585 773.289 447.111 774.511C446.225 771.035 445.767 767.302 445.414 763.734Z"/>
	<path fill="#E713C6" transform="scale(0.365787 0.365787)" d="M494.062 822.998C477.56 823.565 461.068 820.153 445.679 814.273C441.304 812.601 436.521 810.864 432.658 808.174C429.823 806.201 428.421 804.417 427.621 801.09C425.209 791.051 424.822 780.121 423.302 769.866L411.699 689.881L381.805 484.75L371.938 417.117L366.476 380.68L378.415 384.549C378.974 389.604 380.157 394.605 380.879 399.649L388.356 451L412.235 615.089L429.06 735.266L434.05 772.632C434.853 778.713 435.223 785.021 436.541 791.001C437.88 797.075 440.221 802.06 445.25 805.929C455.692 813.963 470.569 819.072 483.49 821.043L494.062 822.998Z"/>
	<path fill="#D3B8E8" transform="scale(0.365787 0.365787)" d="M636.131 387.673L636.905 388.5L628.252 443.225L621.995 481C621.136 485.849 620.699 492.134 618.53 496.545C614.775 498.271 610.118 499.239 606.052 500.091C587.143 504.054 569.318 500.992 551.328 494.605C551.119 492.821 583.244 407.019 586.888 397.163L636.131 387.673Z"/>
	<defs>
		<linearGradient id="gradient_4" gradientUnits="userSpaceOnUse" x1="647.26611" y1="620.19971" x2="574.70941" y2="598.56305">
			<stop offset="0" stop-color="#7B7CA7"/>
			<stop offset="1" stop-color="#9C88B6"/>
		</linearGradient>
	</defs>
	<path fill="url(#gradient_4)" transform="scale(0.365787 0.365787)" d="M636.131 387.673L659.051 380.75L628.551 583.817L618.002 649.3L601.888 755.142L598.093 780.26C597.231 786.407 596.613 792.762 595.146 798.796C594.148 802.898 592.191 806.262 588.75 808.819C583.61 812.638 576.555 814.712 570.5 816.554C549.573 822.922 527.867 826.35 505.991 823.67L505.407 823.559C518.421 823.408 532.671 821.925 544.751 816.784C556.799 811.657 571.486 800.772 576.489 788.268C577.137 787.656 577.675 786.979 578.25 786.297L604.278 622.481L616.439 548.219L623.413 505.858C623.684 503.893 624.14 501.293 623.265 499.432C622.386 497.561 620.355 496.996 618.53 496.545C620.699 492.134 621.136 485.849 621.995 481L628.252 443.225L636.905 388.5L636.131 387.673Z"/>
	<path fill="#FEFEFE" transform="scale(0.365787 0.365787)" d="M494.062 822.998L483.49 821.043C470.569 819.072 455.692 813.963 445.25 805.929C440.221 802.06 437.88 797.075 436.541 791.001C435.223 785.021 434.853 778.713 434.05 772.632L429.06 735.266L412.235 615.089L388.356 451L380.879 399.649C380.157 394.605 378.974 389.604 378.415 384.549C394.464 388.945 410.505 392.676 426.963 395.271C453.586 399.469 481.012 400.895 507.937 401.148L545.881 400.505L517.752 474.365L517.261 474.449L496.617 457.101C483.668 445.59 471.029 433.405 455.517 425.375C447.679 421.317 438.933 418.436 430.003 419.204C421.582 419.928 413.997 423.485 408.582 430.035C406.209 432.906 404.521 435.946 403.432 439.5L403.168 440.336C402.134 443.819 402.245 448.073 402.979 451.609L403.888 460.206L445.414 763.734C445.767 767.302 446.225 771.035 447.111 774.511C447.702 777.296 448.661 789.233 450.415 790.509C454.552 793.52 460.742 794.923 465.622 796.25C491.217 803.211 519.099 804.437 545.094 798.553L576.489 788.268C571.486 800.772 556.799 811.657 544.751 816.784C532.671 821.925 518.421 823.408 505.407 823.559L494.062 822.998Z"/>
	<path fill="#E713C6" transform="scale(0.365787 0.365787)" d="M619.358 315.157C630.363 317.068 641.297 320.607 651.629 324.82C659.223 327.916 668.07 332.313 672.888 339.25C674.691 341.847 675.41 344.803 674.75 347.911C673.71 352.812 668.782 357.168 664.671 359.733C646.869 370.841 623.262 375.428 602.813 378.898L576.75 382.998C538.756 387.406 500.845 387.346 462.75 384.519C437.971 382.68 413.349 379.69 389.146 373.904C379.054 371.491 368.958 367.908 359.872 362.88C354.972 360.169 350.251 357.079 347.335 352.118C345.654 349.258 345.115 345.954 345.982 342.758C347.668 336.543 353.804 332.492 359.157 329.606C375.46 320.817 392.879 316.433 410.989 313.234C428.534 310.135 446.423 308.353 464.195 307.141C490.382 305.355 517.037 304.68 543.25 306.276L561.084 307.377C563.073 307.502 565.713 307.26 567.583 307.807L568.625 308.25C568.165 312.309 565.704 317.104 564.301 321L552.941 352.522C503.136 353.282 452.898 356.347 404.044 344.452C396.39 342.588 386.921 341.117 381.07 335.287C379.096 333.32 378.036 330.053 376.971 327.505C375.715 329.342 374.184 331.194 373.554 333.348C379.041 344.002 386.954 347.423 398.018 350.843C410.147 354.593 423.017 356.275 435.553 358.036C465.434 362.233 495.734 363.785 525.89 363.557L554.914 363.179C573.689 362.232 592.247 359.889 610.75 356.632C622.595 354.546 635.849 352.271 646.547 346.569C649.023 345.249 652.715 343.268 653.684 340.474C654.028 339.479 653.976 338.483 653.366 337.594C652.906 336.922 652.169 336.323 651.566 335.774C644.504 331.861 637.739 328.096 630.065 325.449C625.17 323.76 620.114 323.274 615.501 320.84C616.481 318.472 617.099 316.549 619.358 315.157Z"/>
	<path fill="#FEFEFE" transform="scale(0.365787 0.365787)" d="M440.003 318.214L485.703 318.707C482.689 319.755 478.813 319.816 475.635 320.167L455.782 322.331C445.949 323.603 436.208 325.788 426.571 328.088C421.471 329.319 416.197 330.628 411.213 332.254C406.582 333.765 401.091 336.474 396.25 336.923C394.529 337.083 393.284 336.618 391.75 335.903C390.657 334.644 390.201 333.831 389.671 332.25C389.79 330.816 389.94 329.58 390.94 328.45C393.776 325.247 399.572 324.091 403.647 323.118C415.63 320.257 427.714 318.832 440.003 318.214Z"/>
	<path fill="#FEFEFE" transform="scale(0.365787 0.365787)" d="M369.654 329.25L372 328.841L372.516 329.75C370.807 332.743 369.262 335.585 368.131 338.85C368.724 340.425 369.312 342.122 370.308 343.491C374.662 349.474 383.014 352.511 389.704 354.929C411.483 362.8 433.894 365.717 456.751 368.567L483.694 371.882C492.955 372.755 502.238 372.713 511.469 373.922L499.619 375.351C492.678 376.389 484.578 375.787 477.512 375.686C444.709 375.217 411.485 372.417 380.068 362.386C372.496 359.968 359.809 355.239 356.148 347.597C355.158 345.53 355.01 343.501 355.882 341.341C358.242 335.497 364.089 331.603 369.654 329.25Z"/>
	<defs>
		<linearGradient id="gradient_5" gradientUnits="userSpaceOnUse" x1="535.81067" y1="635.66089" x2="364.94812" y2="514.51416">
			<stop offset="0" stop-color="#460283"/>
			<stop offset="1" stop-color="#B108F4"/>
		</linearGradient>
	</defs>
	<path fill="url(#gradient_5)" transform="scale(0.365787 0.365787)" d="M431.717 426.786C454.668 428.029 471.732 445.125 488.173 459.361C517.376 484.648 549.176 509.417 589.937 508.669C599.512 508.493 608.501 505.201 617.842 503.569L613.339 531.069L613 528.5L612.141 527.891C611.486 529.005 611.604 528.957 610.566 529.55L609.138 530.85L608.634 531.259C607.502 532.3 606.258 534.01 605.21 535.185C604.14 536.386 602.908 538.043 602.011 539.393C600.376 541.856 598.22 544.015 597.138 546.809L596.623 547.155C595.437 548.058 595.211 549.459 594.111 550.404C593.128 551.249 592.597 552.618 592.138 553.809L591.623 554.154C590.555 554.969 590.109 556.091 589.638 557.309L589.123 557.654C588.055 558.469 587.609 559.591 587.138 560.809L586.623 561.154C585.654 561.893 585.379 562.673 584.89 563.735C584.337 564.934 583.334 565.518 582.671 566.577C580.867 569.455 578.72 572.077 576.997 574.998L575.992 576.267L574.051 578.952L567.123 588.586C565.272 590.793 563.921 593.55 562.146 595.804L551.139 610.859C549.54 612.891 548.349 615.479 546.606 617.392C545.521 618.583 545.469 620.038 544.042 621.245C543.473 621.726 543.769 621.434 543.394 622.224C542.999 623.058 542.764 623.239 542.108 623.825C541.085 624.739 541.221 625.194 540.649 626.345C540.284 627.078 539.658 627.724 539.042 628.245C538.427 628.765 538.381 629.322 537.996 630C537.604 630.689 537.148 631.23 536.552 631.735C535.929 632.261 535.885 632.814 535.496 633.5C535.104 634.189 534.648 634.73 534.052 635.235C533.429 635.761 533.385 636.314 532.996 637C532.604 637.689 532.148 638.23 531.552 638.735C530.773 639.393 530.227 640.871 529.557 641.76L526.171 646.077L525.529 647.404C524.105 650.004 521.545 652.187 520.076 654.58C518.96 656.396 519.299 657.294 517.67 659.074L517.036 660.065L516.646 660.455C515.671 661.462 515.428 662.598 514.224 663.591C513.48 664.205 513.779 663.884 513.373 664.74C512.711 666.139 511.471 666.51 510.949 668.005C510.415 669.53 508.992 670.4 508.225 671.976C507.703 673.048 506.352 674.041 505.463 674.829L503.846 674.79L503.838 675.382C503.806 676.987 503.953 678.597 502.705 679.791L501.676 680.722C501.019 681.353 500.854 681.951 500.638 682.809L500.123 683.154C499.171 683.88 498.844 684.7 498.359 685.753C498 686.532 497.554 687.097 497.044 687.775C495.834 689.385 494.921 691.028 493.58 692.556L486.896 701.974L485.057 704.439L481.896 708.974L480.057 711.439L473.125 721.088L465.346 732.505C464.942 733.078 464.669 733.563 464.372 734.197C463.469 736.121 461.858 738.14 460.728 739.976L459.738 741.163C458.86 742.308 458.149 743.532 457.237 744.672L455.091 747.839C453.768 749.956 451.932 751.662 450.541 753.904L450.115 754.451C449.583 755.206 449.597 755.805 449.527 756.694L449.13 757.096C447.392 758.964 446.377 760.619 445.65 763.045L445.414 763.734L403.888 460.206L402.979 451.609C406.408 446.985 407.374 441.369 411.331 436.823C417.229 430.047 422.86 427.431 431.717 426.786Z"/>
	<path fill="#9E12FB" transform="scale(0.365787 0.365787)" d="M402.979 451.609C406.408 446.985 407.374 441.369 411.331 436.823C417.229 430.047 422.86 427.431 431.717 426.786C430.077 428.004 428.939 428.847 428.003 430.689L426.817 430.027C426.582 430.636 426.516 431.342 426.112 431.855C425.688 432.392 425.07 432.109 424.661 432.899C424.194 433.8 423.871 434.357 423.135 435.069C421.909 436.257 421.422 437.801 420.427 439.154L412.534 449.602C411.876 450.401 411.848 451.052 411.366 451.884C411.164 452.233 410.76 452.584 410.465 452.863L409.546 452.155C408.85 453.378 408.957 453.329 409.306 454.71L407.917 454.212C407.318 455.28 406.943 456.008 406.718 457.228C406.483 458.497 406.025 458.892 405.192 459.84L403.888 460.206L402.979 451.609Z"/>
	<defs>
		<linearGradient id="gradient_6" gradientUnits="userSpaceOnUse" x1="428.3667" y1="708.98834" x2="380.72141" y2="236.25398">
			<stop offset="0" stop-color="#29004E"/>
			<stop offset="1" stop-color="#6C0599"/>
		</linearGradient>
	</defs>
	<path fill="url(#gradient_6)" transform="scale(0.365787 0.365787)" d="M460.013 228.519C476.894 225.449 494.099 224.2 511.247 224.025C518.903 223.946 526.946 223.821 534.538 224.956C553.621 225.315 573.037 230.282 591.668 234.211L572.641 292.149C543.628 287.477 514.996 288.678 485.777 289.849L452.392 291.063C426.42 292.787 399.67 296.809 374.879 304.821C363.851 308.385 353.294 312.436 343.797 319.229C337.012 324.082 331.049 331.796 329.692 340.172L329.442 342L329.308 342.826C328.255 349.89 331.369 357.944 335.473 363.541C337.72 366.604 340.845 369.435 343.989 371.527C345.215 372.343 347.73 373.556 348.677 374.594C349.176 375.139 349.425 377.587 349.536 378.393L376.057 559L381.276 596.663C382.16 603.335 383.993 611.175 383.229 617.88C385.854 623.116 385.899 630.228 386.671 636L390.247 662.157L405.288 768.295L408.321 789.347C408.623 791.486 409.584 794.913 409.324 796.985L408.272 796.726L408.5 795.25L407.386 795.354C406.087 794.427 405.064 793.76 403.491 793.418L402.467 793.176L399.733 792.491C398.653 792.323 397.616 791.959 396.557 791.839C395.824 791.755 396.177 791.841 395.488 791.643L395.002 791.497L394.026 791.307C393.209 791.095 392.698 790.779 391.82 790.797C391.078 790.813 390.964 790.625 390.326 790.249C389.04 790.382 388.537 789.766 387.356 789.797C386.641 789.816 386.585 789.659 385.976 789.284C384.693 789.464 384.029 788.769 382.829 788.795L382.33 788.84L381.472 788.376C379.068 787.64 381.492 788.751 380.023 788.07C379.182 787.681 378.509 787.352 377.567 787.307L377.024 787.284C376.391 787.104 375.63 786.97 375.024 786.784C373.377 786.28 374.747 786.452 373.598 786.338C372.717 786.25 371.931 785.942 371.052 785.842C370.235 785.749 370.596 785.834 369.597 785.523L368.665 785.21L367.925 785.038C366.81 784.758 367.256 784.75 366.258 784.806C365.268 784.861 364.968 784.389 364.163 783.84C363.15 783.842 361.978 783.677 361.023 783.33C359.518 782.783 360.679 782.947 359.598 782.839L359.023 782.785C358.201 782.598 357.806 782.316 356.912 782.335C356.074 782.353 356.028 782.188 355.326 781.749L354.33 781.84L353.472 781.376C350.893 780.588 353.509 781.746 352.071 781.086C350.945 780.569 349.718 780.239 348.5 780.009L345.5 779.308C344.73 779.051 344.177 778.778 343.349 778.799C342.568 778.82 340.55 778.175 339.826 777.749L338.83 777.84L337.972 777.376C335.703 776.682 337.947 777.74 336.495 777.067C335.814 776.751 335.335 776.407 334.563 776.33C333.853 776.259 334.039 776.348 333.247 776.016C332.489 775.699 331.896 775.264 331.061 775.147L330.452 775.092C329.262 774.927 328.19 774.692 326.977 774.785C325.544 774.895 324.509 774.126 323.169 774.253C321.545 774.407 319.806 774.207 318.145 774.25L317.745 774.75C318.418 775.528 319.035 776.251 319.554 777.143L319.95 777.836C318.491 776.907 317.182 775.739 315.842 774.647C303.42 764.327 292.357 752.752 281.415 740.918C277.807 737.015 271.924 732.068 270.162 727.016L269.255 726.916C261.132 716.674 254.013 705.358 247.348 694.129C221.625 650.788 206.213 602.507 202.768 552.166C201.58 534.803 202.207 517.696 203.788 500.391C209.825 434.289 241.162 369.24 286.869 321.394C296.41 311.406 306.341 302.213 316.932 293.369L328.535 284.314C332.471 281.987 336.074 278.945 339.866 276.376L360.072 263.621C388.625 246.756 422.033 235.947 454.425 229.553L456.592 229.179L460.013 228.519Z"/>
	<path fill="#50058A" transform="scale(0.365787 0.365787)" d="M454.425 229.553L456.592 229.179C457.085 229.594 457.363 229.975 457.736 230.495L457.363 231.246C456.53 231.757 456.346 231.787 455.365 231.822C454.866 231.073 454.691 230.406 454.425 229.553Z"/>
	<path fill="#50058A" transform="scale(0.365787 0.365787)" d="M460.013 228.519C476.894 225.449 494.099 224.2 511.247 224.025C518.903 223.946 526.946 223.821 534.538 224.956C530.188 225.481 524.452 224.245 520.547 226.06L519.911 225.953C517.708 225.618 515.352 225.835 513.143 226.007C510.444 226.218 506.084 226.668 503.764 225.276L503.354 225.637C501.641 226.916 498.729 225.741 496.643 225.996L496.095 226.049C494.623 226.204 493.869 226.505 492.634 227.313C491.219 227.348 490.211 227.23 488.873 226.834C487.484 226.422 485.798 227.108 484.633 227.81L484.187 227.749C482.735 227.57 482.039 227.613 480.681 228.29L480.241 227.586L480.672 226.749L477.797 226.768L477.815 228.246C476.84 228.301 475.893 228.291 474.969 228.619C474.174 228.901 473.452 228.787 472.625 228.745L471.627 229.294C471.199 228.241 471.207 228.769 471.588 227.712L469.281 227.712C470.042 228.44 469.626 228.165 470.506 228.572L470.113 229.341L468.02 229.621C467.142 229.755 467.57 229.69 466.693 230.013C465.835 230.33 465.289 230.276 464.397 230.199C464.55 229.249 464.436 229.724 464.746 228.778L463.239 228.942L463.315 230.247C462.217 230.733 461.486 230.817 460.288 230.823L460.237 230.07C460.158 229.045 460.215 229.455 460.013 228.519Z"/>
	<path fill="#FEFEFE" transform="scale(0.365787 0.365787)" d="M221.355 532.75C223.002 532.807 224.694 532.938 226.25 533.529C228.386 534.341 229.788 535.853 230.605 537.959C231.41 540.035 231.407 542.209 230.488 544.25C229.23 547.045 227.038 548.558 224.25 549.607C222.659 549.504 220.726 549.37 219.25 548.78C217.545 548.097 215.859 545.378 215.161 543.764C214.357 541.906 214.208 539.611 215.083 537.75C216.467 534.806 218.4 533.757 221.355 532.75Z"/>
	<path fill="#FEFEFE" transform="scale(0.365787 0.365787)" d="M255.77 647.091C257.526 647.225 259.644 647.242 261.25 648.048C263.471 649.162 265.15 651.377 265.79 653.758C266.406 656.049 266.098 658.438 264.942 660.5C263.398 663.254 261.421 664.275 258.466 665.063C257.011 664.873 255.271 664.79 253.893 664.281C251.837 663.523 250.268 661.807 249.328 659.854C248.413 657.953 248.152 655.409 248.907 653.419C250.114 650.235 252.694 648.336 255.77 647.091Z"/>
	<path fill="#FEFEFE" transform="scale(0.365787 0.365787)" d="M342.888 519.137C345.767 518.99 348.874 518.777 351.25 520.765C353.103 522.315 354.497 525.328 354.484 527.75C354.472 530.091 353.313 532.538 351.608 534.119C349.526 536.05 346.538 536.863 343.75 536.623C340.804 536.369 339.284 534.743 337.492 532.569C336.777 529.934 336.06 527.184 336.968 524.5C337.919 521.689 340.388 520.395 342.888 519.137Z"/>
	<path fill="#FEFEFE" transform="scale(0.365787 0.365787)" d="M305.095 418C306.855 417.981 308.863 417.846 310.582 418.258C312.984 418.833 315.232 420.798 316.54 422.831C318.089 425.236 318.52 428.123 317.817 430.902C316.859 434.691 313.865 436.975 310.607 438.75C309.152 439.071 307.417 439.133 305.958 438.829C302.708 438.154 300.242 436.105 298.59 433.25C297.288 431 297.041 427.722 297.875 425.275C299.149 421.535 301.75 419.765 305.095 418Z"/>
	<path fill="#9E12FB" transform="scale(0.365787 0.365787)" d="M267.084 569.27C272.731 570.25 278.155 573.417 281.609 578.048C285.557 583.339 286.557 590.11 285.316 596.48C284.216 602.122 279.885 607.549 275.031 610.554C270.021 613.656 263.45 614.845 257.75 613.242C251.608 611.514 246.527 607.329 243.522 601.75C240.78 596.66 240.262 590.284 241.795 584.747C243.311 592.36 243.769 597.933 250.406 603.064C253.462 605.426 257.167 606.346 260.974 605.704L261.75 605.563C266.909 604.711 271.593 601.692 274.801 597.566C277.86 593.633 279.565 588.027 278.81 583.054C277.685 575.646 272.426 573.287 267.084 569.27Z"/>
	<defs>
		<linearGradient id="gradient_7" gradientUnits="userSpaceOnUse" x1="269.68649" y1="600.73706" x2="251.33882" y2="572.77765">
			<stop offset="0" stop-color="#E0A9EE"/>
			<stop offset="1" stop-color="#D281FF"/>
		</linearGradient>
	</defs>
	<path fill="url(#gradient_7)" transform="scale(0.365787 0.365787)" d="M241.795 584.747C242.324 583.08 243.026 581.507 243.876 579.976C246.377 575.471 250.025 572.057 255.05 570.636L256 570.378C259.669 569.338 263.294 569.363 267.084 569.27C272.426 573.287 277.685 575.646 278.81 583.054C279.565 588.027 277.86 593.633 274.801 597.566C271.593 601.692 266.909 604.711 261.75 605.563L260.974 605.704C257.167 606.346 253.462 605.426 250.406 603.064C243.769 597.933 243.311 592.36 241.795 584.747Z"/>
	<path fill="#FEFEFE" transform="scale(0.365787 0.365787)" d="M259.656 574.014L263.25 574.032C264.541 574.225 265.75 575.363 266.441 576.414C267.14 577.478 267.525 578.874 267.291 580.115C266.313 585.306 260.064 588.748 255.94 591.372C254.656 591.482 253.138 591.716 251.886 591.325C250.36 590.848 249.575 589.994 248.894 588.576C248.148 587.02 248.37 584.81 249.021 583.25C251.016 578.472 255.113 575.937 259.656 574.014Z"/>
	<path fill="#260149" transform="scale(0.365787 0.365787)" d="M337.492 532.569C336.412 535.71 335.377 538.255 333.395 540.973C325.049 552.423 310.117 559.093 296.386 561.058C281.721 563.156 266.955 559.428 255.184 550.52C242.438 540.876 233.733 525.989 231.755 510.144C229.936 495.581 234.401 479.297 243.65 467.848C252.888 456.412 266.416 449.558 280.939 447.997C296.496 446.326 311.145 449.78 323.452 459.596C329.239 464.212 334.376 470.022 337.863 476.586C344.569 489.209 347.073 505.312 342.888 519.137C340.388 520.395 337.919 521.689 336.968 524.5C336.06 527.184 336.777 529.934 337.492 532.569Z"/>
	<defs>
		<linearGradient id="gradient_8" gradientUnits="userSpaceOnUse" x1="260.08551" y1="473.72293" x2="316.23148" y2="534.70758">
			<stop offset="0" stop-color="#C279F8"/>
			<stop offset="1" stop-color="#9C2FFF"/>
		</linearGradient>
	</defs>
	<path fill="url(#gradient_8)" transform="scale(0.365787 0.365787)" d="M285.826 462.216C294.998 461.021 304.832 465.013 312.234 470.142C321.821 476.785 328.15 487.948 330.079 499.338C331.864 509.873 328.744 521.109 322.587 529.727C315.304 539.924 304.291 544.523 292.372 546.611C281.994 547.643 271.795 544.701 263.641 538.126C254.356 530.638 247.724 520.704 246.559 508.64C245.397 496.618 249.019 485.387 256.761 476.204C264.183 467.4 274.574 463.15 285.826 462.216Z"/>
	<path fill="#D3B8E8" transform="scale(0.365787 0.365787)" d="M284.889 464.133C290.837 463.318 296.963 464.883 302.198 467.67C310.537 472.11 315.357 479.846 318.108 488.695C321.056 498.182 320.24 509.505 315.389 518.246C310.379 527.274 299.779 534.206 289.978 536.868C286.493 537.751 282.062 538.07 278.5 537.488C272.082 536.44 266.473 531.946 262.689 526.847C256.185 518.082 253.433 508.212 255.114 497.319C256.561 487.943 260.761 477.524 268.69 471.805C273.989 467.983 278.367 465.409 284.889 464.133Z"/>
	<path fill="#FEFEFE" transform="scale(0.365787 0.365787)" d="M275.143 474.494C276.268 474.459 277.458 474.385 278.574 474.561C280.315 474.837 281.577 475.938 282.473 477.394C283.269 478.688 283.168 480.731 282.773 482.195C281.046 488.603 273.064 494.299 267.752 497.659C266.609 497.786 265.38 497.802 264.25 497.527C262.86 497.188 261.896 496.404 261.25 495.13C260.045 492.755 260.786 489.604 261.671 487.25C264.047 480.929 269.307 477.292 275.143 474.494Z"/>
	<defs>
		<linearGradient id="gradient_9" gradientUnits="userSpaceOnUse" x1="331.12793" y1="702.65729" x2="349.41577" y2="567.57629">
			<stop offset="0" stop-color="#B35EF3"/>
			<stop offset="1" stop-color="#8802FF"/>
		</linearGradient>
	</defs>
	<path fill="url(#gradient_9)" transform="scale(0.365787 0.365787)" d="M278.207 697.151C286.815 671.29 307.602 655.746 327.436 638.783C336.544 630.993 345.837 620.849 346.663 608.238C348.017 587.58 330.301 574.249 317.899 560.349C319.541 560.69 321.766 562.316 323.284 563.177C331.242 567.691 338.248 573.28 345.285 579.079C352.695 585.187 359.935 591.396 366.61 598.315C372.549 604.471 377.894 611.204 383.229 617.88C385.854 623.116 385.899 630.228 386.671 636L390.247 662.157L405.288 768.295L408.321 789.347C408.623 791.486 409.584 794.913 409.324 796.985L408.272 796.726L408.5 795.25L407.386 795.354C406.087 794.427 405.064 793.76 403.491 793.418L402.467 793.176L399.733 792.491C398.653 792.323 397.616 791.959 396.557 791.839C395.824 791.755 396.177 791.841 395.488 791.643L395.002 791.497L394.026 791.307C393.209 791.095 392.698 790.779 391.82 790.797C391.078 790.813 390.964 790.625 390.326 790.249C389.04 790.382 388.537 789.766 387.356 789.797C386.641 789.816 386.585 789.659 385.976 789.284C384.693 789.464 384.029 788.769 382.829 788.795L382.33 788.84L381.472 788.376C379.068 787.64 381.492 788.751 380.023 788.07C379.182 787.681 378.509 787.352 377.567 787.307L377.024 787.284C376.391 787.104 375.63 786.97 375.024 786.784C373.377 786.28 374.747 786.452 373.598 786.338C372.717 786.25 371.931 785.942 371.052 785.842C370.235 785.749 370.596 785.834 369.597 785.523L368.665 785.21L367.925 785.038C366.81 784.758 367.256 784.75 366.258 784.806C365.268 784.861 364.968 784.389 364.163 783.84C363.15 783.842 361.978 783.677 361.023 783.33C359.518 782.783 360.679 782.947 359.598 782.839L359.023 782.785C358.201 782.598 357.806 782.316 356.912 782.335C356.074 782.353 356.028 782.188 355.326 781.749L354.33 781.84L353.472 781.376C350.893 780.588 353.509 781.746 352.071 781.086C350.945 780.569 349.718 780.239 348.5 780.009L345.5 779.308C344.73 779.051 344.177 778.778 343.349 778.799C342.568 778.82 340.55 778.175 339.826 777.749L338.83 777.84L337.972 777.376C335.703 776.682 337.947 777.74 336.495 777.067C335.814 776.751 335.335 776.407 334.563 776.33C333.853 776.259 334.039 776.348 333.247 776.016C332.489 775.699 331.896 775.264 331.061 775.147L330.452 775.092C329.262 774.927 328.19 774.692 326.977 774.785C325.544 774.895 324.509 774.126 323.169 774.253C321.545 774.407 319.806 774.207 318.145 774.25L317.745 774.75C318.418 775.528 319.035 776.251 319.554 777.143L319.95 777.836C318.491 776.907 317.182 775.739 315.842 774.647C303.42 764.327 292.357 752.752 281.415 740.918C277.807 737.015 271.924 732.068 270.162 727.016C272.402 716.986 274.44 706.743 278.207 697.151Z"/>
	<path fill="#FEFEFE" transform="scale(0.365787 0.365787)" d="M344.616 651.75C345.872 651.308 346.825 651.215 348.13 651.396C349.691 651.613 351.007 652.265 351.919 653.595C353.04 655.229 353.088 657.461 352.582 659.313C351.988 661.486 350.422 662.297 348.575 663.361L345.75 663.507C344.132 663.422 342.336 662.28 341.385 661.004C340.388 659.667 340.181 657.39 340.637 655.813C341.205 653.85 342.98 652.737 344.616 651.75Z"/>
	<path fill="#FEFEFE" transform="scale(0.365787 0.365787)" d="M357.669 620.25C358.864 620.093 360.113 620.323 361.281 620.611C362.834 620.993 364.255 622.212 365.044 623.592C366.477 626.098 365.982 629.677 365.068 632.259C363.76 635.958 360.72 638.857 357.25 640.54C355.774 640.878 354.342 640.667 352.915 640.205C351.271 639.672 350.012 638.531 349.338 636.925C348.168 634.135 349.427 630.289 350.548 627.671C352.099 624.051 353.99 621.747 357.669 620.25Z"/>
	<path fill="#FEFEFE" transform="scale(0.365787 0.365787)" d="M293.632 695.646C298.633 686.333 304.477 678.914 312.115 671.666C315.316 668.628 318.986 665.341 323.29 664.051C325.083 663.513 326.874 663.781 328.494 664.718C329.934 665.552 331.068 667.006 331.472 668.62C332.176 671.433 331.437 674.363 329.811 676.727C328.05 679.289 324.894 681.432 322.618 683.62C317.81 688.24 313.755 693.419 310.511 699.238C308.507 703.199 306.834 707.294 306.241 711.726C305.812 714.938 305.839 718.64 304.77 721.678L304.555 722.25C303.864 724.156 303.216 725.414 301.5 726.596C299.748 727.802 296.53 727.977 294.541 727.353C292.708 726.777 290.946 724.702 290.01 723.112C287.655 719.114 288.167 713.041 289.235 708.692C290.369 704.074 291.747 700.003 293.632 695.646Z"/>
	<defs>
		<linearGradient id="gradient_10" gradientUnits="userSpaceOnUse" x1="307.3248" y1="771.48199" x2="317.08524" y2="697.89349">
			<stop offset="0" stop-color="#CB8EED"/>
			<stop offset="1" stop-color="#B35DF3"/>
		</linearGradient>
	</defs>
	<path fill="url(#gradient_10)" transform="scale(0.365787 0.365787)" d="M278.207 697.151L278.69 696.751C279.225 696.302 279.894 695.619 280.532 695.341C281.022 695.128 287.611 694.522 288.311 694.631C288.716 694.695 288.937 695.231 289.34 695.306C289.934 695.417 291.106 694.602 291.749 694.653C292.137 694.684 293.228 695.433 293.632 695.646C291.747 700.003 290.369 704.074 289.235 708.692C288.167 713.041 287.655 719.114 290.01 723.112C290.946 724.702 292.708 726.777 294.541 727.353C296.53 727.977 299.748 727.802 301.5 726.596C303.216 725.414 303.864 724.156 304.555 722.25L304.77 721.678C305.839 718.64 305.812 714.938 306.241 711.726C306.834 707.294 308.507 703.199 310.511 699.238L312.286 700.685L313.086 700.522C313.856 700.376 314.391 700.363 315.146 700.317C316.019 700.265 316.788 700.176 317.627 699.934L318.07 700.146C319.369 700.613 321.383 700.591 322.832 700.887C324.078 701.141 325.156 701.003 326.523 701.351L327.747 701.54L328.673 701.822L329.73 701.878C331.52 701.943 333.514 702.429 335.253 702.809C337.232 703.242 339.487 703.108 341.451 703.7C343.754 704.393 346.907 704.198 349.388 704.619C351.835 705.034 354.209 704.536 356.634 704.747C357.377 704.812 358.02 704.664 358.746 704.528L359.551 705.646L328.668 754.074C324.275 761.01 319.571 767.235 315.842 774.647C303.42 764.327 292.357 752.752 281.415 740.918C277.807 737.015 271.924 732.068 270.162 727.016C272.402 716.986 274.44 706.743 278.207 697.151Z"/>
	<defs>
		<linearGradient id="gradient_11" gradientUnits="userSpaceOnUse" x1="391.04739" y1="665.98761" x2="362.80875" y2="784.55298">
			<stop offset="0" stop-color="#8602F9"/>
			<stop offset="1" stop-color="#B563F8"/>
		</linearGradient>
	</defs>
	<path fill="url(#gradient_11)" transform="scale(0.365787 0.365787)" d="M390.247 662.157L405.288 768.295L408.321 789.347C408.623 791.486 409.584 794.913 409.324 796.985L408.272 796.726L408.5 795.25L407.386 795.354C406.087 794.427 405.064 793.76 403.491 793.418L402.467 793.176L399.733 792.491C398.653 792.323 397.616 791.959 396.557 791.839C395.824 791.755 396.177 791.841 395.488 791.643L395.002 791.497L394.026 791.307C393.209 791.095 392.698 790.779 391.82 790.797C391.078 790.813 390.964 790.625 390.326 790.249C389.04 790.382 388.537 789.766 387.356 789.797C386.641 789.816 386.585 789.659 385.976 789.284C384.693 789.464 384.029 788.769 382.829 788.795L382.33 788.84L381.472 788.376C379.068 787.64 381.492 788.751 380.023 788.07C379.182 787.681 378.509 787.352 377.567 787.307L377.024 787.284C376.391 787.104 375.63 786.97 375.024 786.784C373.377 786.28 374.747 786.452 373.598 786.338C372.717 786.25 371.931 785.942 371.052 785.842C370.235 785.749 370.596 785.834 369.597 785.523L368.665 785.21L367.925 785.038C366.81 784.758 367.256 784.75 366.258 784.806C365.268 784.861 364.968 784.389 364.163 783.84C363.15 783.842 361.978 783.677 361.023 783.33C359.518 782.783 360.679 782.947 359.598 782.839L359.023 782.785C358.201 782.598 357.806 782.316 356.912 782.335C356.074 782.353 356.028 782.188 355.326 781.749L354.33 781.84L353.472 781.376C350.893 780.588 353.509 781.746 352.071 781.086C350.945 780.569 349.718 780.239 348.5 780.009L345.5 779.308C344.73 779.051 344.177 778.778 343.349 778.799C342.568 778.82 340.55 778.175 339.826 777.749L338.83 777.84L337.972 777.376C335.703 776.682 337.947 777.74 336.495 777.067C335.814 776.751 335.335 776.407 334.563 776.33C333.853 776.259 334.039 776.348 333.247 776.016C332.489 775.699 331.896 775.264 331.061 775.147L330.452 775.092C329.262 774.927 328.19 774.692 326.977 774.785C325.544 774.895 324.509 774.126 323.169 774.253C321.545 774.407 319.806 774.207 318.145 774.25L317.745 774.75C318.418 775.528 319.035 776.251 319.554 777.143L319.95 777.836C318.491 776.907 317.182 775.739 315.842 774.647C319.571 767.235 324.275 761.01 328.668 754.074L359.551 705.646C361.168 703.14 362.686 700.389 364.606 698.109C366.408 695.97 368.627 694.074 370.224 691.784C372.232 688.906 373.869 685.719 375.788 682.766L382.943 672.5C385.144 669.153 387.077 664.61 390.247 662.157Z"/>
</svg>
