<?xml version="1.0" encoding="utf-8" ?>
<svg xmlns="http://www.w3.org/2000/svg" xmlns:xlink="http://www.w3.org/1999/xlink" width="380" height="380">
	<path fill="#17013D" transform="scale(0.371715 0.371715)" d="M645.117 94.1286C649.986 93.8025 654.488 94.7437 658.886 96.8077C665.174 99.7586 672.11 105.272 674.417 111.997L674.663 112.75C675.625 115.622 675.812 118.616 675.274 121.606C674.295 127.043 672.368 132.566 670.91 137.913L662.88 168.224L637.873 263.346C653.474 265.969 669.099 269.997 684.25 274.517C695.623 277.91 708.687 281.837 718.459 288.763C721.144 290.666 723.905 293.018 725.518 295.914C726.385 297.472 726.975 299.464 726.919 301.25C726.7 308.341 724.559 315.923 723.634 323.017L715.18 384.856L692.364 550L667.496 736.25L664.715 754.597C664.637 755.207 664.076 758.054 664.25 758.483C664.422 758.91 667.766 761.102 668.315 761.549L681.693 773.268C686.932 777.803 692.983 782.001 696.891 787.818C698.888 790.791 700.054 794.372 700.644 797.886C701.68 804.071 700.505 810.373 696.763 815.514C693.029 820.644 687.584 824.555 681.236 825.54L680.5 825.647L679.078 825.863C670.106 826.871 663.56 820.579 657.192 815.316L651.65 853.64C650.845 859.104 650.528 865.103 648.783 870.37C648.076 872.503 646.854 874.707 645.462 876.464C642.752 879.886 638.818 882.464 635.084 884.631C634.286 885.095 632.354 885.883 631.778 886.49C631.435 886.851 631.225 889.881 631.144 890.501C630.636 894.404 630.3 898.941 627.927 902.239C624.843 906.527 619.717 909.152 615.076 911.373C602.902 917.199 589.634 920.91 576.41 923.462C545.866 929.355 513.952 930.333 482.999 927.626C464.913 926.045 447.019 923.367 429.5 918.539C419.685 915.834 408.98 912.703 400.5 906.907C392.311 901.31 392.012 894.544 390.406 885.587L383.75 881.329C380.405 878.835 377.473 875.359 376.128 871.377C374.965 867.938 374.881 863.764 374.444 860.15L371.848 841L359.805 758.855C350.909 767.21 340.841 779.461 328.237 781.224C321.633 782.148 315.578 778.708 310.549 774.856L308.864 772.889C304.422 767.11 303.077 760.147 303.973 753C304.648 747.619 306.715 743.544 310.084 739.349C312.832 735.928 317.056 733.224 320.389 730.345L351.823 703.998L300.282 323.714C293.465 326.414 288.283 327.655 281.167 324.803C274.976 322.323 269.754 317.482 267.197 311.269C264.551 304.837 264.631 297.811 267.452 291.442C270.133 285.39 274.966 280.927 281.172 278.64C286.193 276.79 291.012 276.876 295.872 279.166L296.482 279.459L301.52 271.219C304.924 266.624 310.039 263.292 315.741 262.535L316.75 262.405C321.533 261.764 325.93 262.488 330.656 263.233C330.34 261.947 330.03 259.047 329.377 258.035C328.377 256.486 324.288 254.335 322.714 253.044L314.385 245.532C301.148 233.4 287.993 220.638 274.018 209.38L299.905 181.791C313.023 190.655 324.993 202.329 336.82 212.892L343.814 219.144C344.278 219.559 344.591 220.482 345.207 220.388C346.029 220.262 348.267 218.61 349.103 218.136C353.352 215.725 357.878 213.201 362.792 212.555C365.878 212.15 369.333 212.75 372.418 213.047L423.209 161.974C425.987 163.568 428.599 166.281 431.122 168.31L452.901 185.93L414.41 225.148L406.462 233.025C406.062 233.418 404.359 234.829 404.189 235.249C403.871 236.034 406.199 241.018 406.487 242.185C407.686 247.033 406.833 252.871 406.427 257.812C409.187 258.37 414.095 256.927 417.04 256.586L443.021 253.98L483.491 251.207C520.102 249.902 556.404 251.379 592.838 255.113L617.213 160.168L625.891 124.658L630.264 106.273C630.848 104.262 631.798 102.241 632.967 100.5C635.851 96.2046 640.334 94.9959 645.117 94.1286Z"/>
	<path fill="#3E0369" transform="scale(0.371715 0.371715)" d="M297.89 311.75L298.857 312.041C298.884 312.924 299.171 314.296 298.637 315.023C296.382 318.095 291.706 318.481 288.25 318.967L287.5 318.788L287.352 318.25C291.631 316.66 294.367 314.588 297.89 311.75Z"/>
	<path fill="#FCFCFC" transform="scale(0.371715 0.371715)" d="M631.661 151.41C630.027 151.005 629.446 151.015 628.25 149.78C628.667 147.259 629.005 142.521 630.75 140.713L634.763 141.231C634.075 144.432 633.593 148.688 631.661 151.41Z"/>
	<path fill="#6D5BC4" transform="scale(0.371715 0.371715)" d="M508.223 899.37L539.462 895.322C539.592 896.076 539.57 897.425 540.217 897.85C541.142 898.459 542.226 898.809 543.255 899.204C535.149 899.921 527.017 900.047 518.885 899.955C515.365 899.915 511.658 900.192 508.223 899.37Z"/>
	<path fill="#3E0369" transform="scale(0.371715 0.371715)" d="M338.544 227.541C338.066 231.325 335.138 234.516 333.42 237.861C331.899 240.823 330.702 243.953 329.51 247.058L323.371 241.985L323.368 241.947L338.544 227.541Z"/>
	<path fill="#6C1FBF" transform="scale(0.371715 0.371715)" d="M296.243 288.76L297.25 289.999C298.847 289.736 298.819 289.688 299.894 288.464L300.354 292.519C299.442 294.844 298.689 296.999 298.369 299.5C298.137 301.317 298.225 305.454 297.45 307.069C296.233 309.607 291.753 312.553 289.299 313.568C285.885 314.982 281.705 315.558 278.243 313.961C276.733 313.264 275.296 311.996 274.315 310.661C278.928 310.083 282.884 309.196 286.726 306.359C293.259 301.536 295.189 296.558 296.243 288.76Z"/>
	<path fill="#AADFF0" transform="scale(0.371715 0.371715)" d="M661.415 108.136C664.247 110.631 667.508 113.897 667.665 117.92C667.793 121.174 666.448 124.339 665.556 127.421L661.161 142.979L653.945 138.939C655.314 137.056 655.942 134.136 656.603 131.899C658.909 124.102 660.662 116.237 661.415 108.136Z"/>
	<path fill="#AF0028" transform="scale(0.371715 0.371715)" d="M648.123 401.685C657.866 403.16 669.088 404.306 678.022 408.637C668.592 412.906 657.326 415.711 646.939 416.013L648.123 401.685Z"/>
	<path fill="#3E0369" transform="scale(0.371715 0.371715)" d="M398.496 219.377L398.981 219.264C405.72 217.613 411.351 210.968 416.121 206.227L428.761 193.25C431.205 190.508 433.947 186.434 437 184.496C438.246 183.705 438.465 184.031 439.75 184.532L440.768 185.792C436.998 191.778 429.844 197.345 424.957 202.6L408.953 219.941C406.241 222.899 403.798 226.119 400.862 228.859L395.597 222.185L398.496 219.377Z"/>
	<path fill="#FCFCFC" transform="scale(0.371715 0.371715)" d="M311.347 757.536L311.384 756.889C311.594 753.861 312.113 750.507 313.822 747.932C317.703 742.087 324.587 737.823 329.859 733.299L352.809 713.495L354.201 719.986L327.515 743.532C322.135 748.252 317.187 753.36 311.347 757.536Z"/>
	<path fill="#ED42E4" transform="scale(0.371715 0.371715)" d="M299.894 288.464C301.023 283.882 301.93 279.373 304.902 275.575C307.599 272.128 310.872 269.842 315 268.474L315.719 268.221C320.055 266.798 326.558 268.517 330.412 270.644C332.501 271.797 334.361 273.358 336.128 274.947C323.549 278.584 309.625 282.739 300.354 292.519L299.894 288.464Z"/>
	<path fill="#890973" transform="scale(0.371715 0.371715)" d="M583.392 394.503L593.902 395.58C593.034 398.706 587.523 421.238 585.978 422.498L568.596 423.498C570.846 418.85 573.954 414.403 576.453 409.857C579.185 404.89 581.29 399.75 583.392 394.503Z"/>
	<path fill="#ED42E4" transform="scale(0.371715 0.371715)" d="M568.596 423.498L558.769 424.04L566.307 393.437L583.392 394.503C581.29 399.75 579.185 404.89 576.453 409.857C573.954 414.403 570.846 418.85 568.596 423.498Z"/>
	<path fill="#FCFCFC" transform="scale(0.371715 0.371715)" d="M661.321 780.315L663.126 768.469L689.278 792.351C689.563 794.048 690.377 796.172 689.099 797.598C688.332 798.455 686.939 799.221 685.918 799.732C684.706 800.453 683.141 800.747 681.75 800.887C677.68 801.296 673.841 799.42 670.707 796.974L660.443 787.798L661.321 780.315Z"/>
	<path fill="#A3ACCF" transform="scale(0.371715 0.371715)" d="M661.321 780.315C667.445 784.663 672.034 790.296 677.835 794.796C680.28 796.692 683.232 798.199 685.918 799.732C684.706 800.453 683.141 800.747 681.75 800.887C677.68 801.296 673.841 799.42 670.707 796.974L660.443 787.798L661.321 780.315Z"/>
	<path fill="#ED42E4" transform="scale(0.371715 0.371715)" d="M274.315 310.661L273.019 308.75C270.89 305.074 270.547 299.454 271.744 295.391C273.084 290.841 277.029 286.453 281.229 284.47C284.507 282.922 289.102 282.424 292.498 283.917C294.747 284.906 295.404 286.58 296.243 288.76C295.189 296.558 293.259 301.536 286.726 306.359C282.884 309.196 278.928 310.083 274.315 310.661Z"/>
	<path fill="#FCFCFC" transform="scale(0.371715 0.371715)" d="M277.718 294.75C279.287 294.564 279.485 294.321 280.75 295.222C281.009 296.341 280.943 297.007 280.661 298.095C280.29 299.531 280.044 299.429 278.75 300.204C277.208 300.238 276.917 300.422 275.65 299.459L275.471 297C275.655 295.663 276.688 295.387 277.718 294.75Z"/>
	<path fill="#6D5BC4" transform="scale(0.371715 0.371715)" d="M660.443 787.798L670.707 796.974C673.841 799.42 677.68 801.296 681.75 800.887C683.141 800.747 684.706 800.453 685.918 799.732C686.939 799.221 688.332 798.455 689.099 797.598C690.377 796.172 689.563 794.048 689.278 792.351C691.591 794.097 691.991 797.417 692.409 800.25C692.979 804.107 691.849 807.979 689.515 811.056C687.168 814.149 682.494 816.624 678.637 816.922C670.931 817.517 664.3 810.429 658.989 805.765C658.887 799.773 659.656 793.731 660.443 787.798Z"/>
	<path fill="#AADFF0" transform="scale(0.371715 0.371715)" d="M666.116 295.213L630.029 287.229L634.697 271.782C644.053 272.663 653.109 275.581 662.128 278.058L662.298 278.458C662.74 279.482 663.204 280.387 663.808 281.325C665.965 284.675 667.686 289.305 666.707 293.305L666.116 295.213Z"/>
	<path fill="#CB34EE" transform="scale(0.371715 0.371715)" d="M385.764 225.795C392.639 230.969 398.33 238.738 399.399 247.5C399.891 251.534 398.916 255.61 397.903 259.482L373.572 263.758L375.232 257.438L380.235 239.19L380.943 237C382.113 233.082 384.073 229.501 385.764 225.795Z"/>
	<path fill="#890973" transform="scale(0.371715 0.371715)" d="M578.409 388.568L584.84 388.445C588.815 381.214 591.048 372.961 593.806 365.205L613.444 305.08C617.038 293.293 619.395 278.286 627.147 268.362C627.248 269.952 627.104 271.306 626.744 272.862L612.611 325L601.021 368.507L597.254 382.776C596.637 385.095 596.165 387.994 594.937 390.036C590.213 389.575 585.479 388.828 580.732 388.857C579.913 388.862 579.203 388.759 578.409 388.568Z"/>
	<path fill="#FCFCFC" transform="scale(0.371715 0.371715)" d="M653.945 138.939C646.803 135.998 640.055 133.926 632.544 132.219C634.532 122.895 636.168 113.824 639.419 104.813C641.142 103.526 643.007 102.552 645.149 102.169C651.196 101.089 656.777 104.771 661.415 108.136C660.662 116.237 658.909 124.102 656.603 131.899C655.942 134.136 655.314 137.056 653.945 138.939Z"/>
	<path fill="#6D5BC4" transform="scale(0.371715 0.371715)" d="M395.597 222.185C390.897 218.75 386.172 216.559 381.102 213.836L422.944 171.913L433.53 180.246L398.496 219.377L395.597 222.185Z"/>
	<path fill="#F92564" transform="scale(0.371715 0.371715)" d="M646.939 416.013L610.005 420.107L599.658 421.226C598.074 421.388 596.361 421.78 594.806 421.445L601.264 396.387L648.123 401.685L646.939 416.013Z"/>
	<path fill="#ED42E4" transform="scale(0.371715 0.371715)" d="M376.025 302.122C376.41 298.486 375.764 293.713 375.323 290.05C374.665 284.586 373.6 283 368.25 281.851C367.277 281.642 366.408 281.648 365.632 280.956C364.024 279.521 364.034 277.754 363.922 275.75L364.75 274.983C373.014 272.912 423.497 263.672 427.74 265.25C428.48 267.047 428.477 268.381 427.86 270.25C426.618 274.017 422.337 275.958 418.59 275.71C416.912 275.599 414.266 274.857 412.75 275.592C412.697 276.067 412.662 277.04 412.43 277.5C411.424 279.497 407.102 280.729 405.004 281.763C403.456 287.704 403.782 294.125 404.434 300.185C404.398 304.381 404.373 308.3 403.417 312.409C402.705 313.317 402.483 314.029 401.308 314.25C398.425 310.687 398.952 304.15 398.421 299.75C397.876 295.224 396.561 290.241 393.984 286.431C392.833 284.729 391.433 283.556 389.375 283.188C379.06 281.342 382.722 299.379 377.336 303.289L376.025 302.122Z"/>
	<path fill="#6D5BC4" transform="scale(0.371715 0.371715)" d="M323.368 241.947L284.327 208.242L299.552 191.091L321.243 210.427C327.271 215.611 334.056 220.408 339.436 226.25L338.544 227.541L323.368 241.947Z"/>
	<path fill="#CB34EE" transform="scale(0.371715 0.371715)" d="M311.347 757.536C317.187 753.36 322.135 748.252 327.515 743.532L354.201 719.986L358.192 750.268L345.951 760.032C339.474 765.656 333.358 774.003 323.643 772.579C319.851 772.023 316.373 769.214 314.25 766.141C312.499 763.607 311.85 760.519 311.347 757.536Z"/>
	<path fill="#ED42E4" transform="scale(0.371715 0.371715)" d="M373.572 263.758L342.175 272.07C340.36 270.376 338.893 266.877 338.075 264.554C335.009 255.842 335.876 247.19 339.856 238.954C343.844 230.7 351.431 225.121 359.988 222.235C369.416 219.056 377.259 221.561 385.764 225.795C384.073 229.501 382.113 233.082 380.943 237L380.235 239.19L375.232 257.438L373.572 263.758Z"/>
	<path fill="#FCFCFC" transform="scale(0.371715 0.371715)" d="M359.59 228.026C360.774 227.978 362.347 227.791 363.5 228.057C365.38 228.492 365.932 229.226 366.974 230.75C366.714 236.924 361.777 238.903 357.549 242.285C355.589 243.852 353.928 245.779 352.25 247.637C351.37 248.427 351.032 248.601 349.75 248.504C347.926 248.365 347.021 247.362 345.857 246.087C345.34 244.53 345.483 243.513 346.018 242C348.29 235.581 353.459 230.739 359.59 228.026Z"/>
	<path fill="#A9EEF6" transform="scale(0.371715 0.371715)" d="M360.099 400.71C353.839 402.32 348.267 405.17 342.788 408.537L330.33 310.818L349.742 302.746L359.081 395.935C359.134 397.64 359.572 399.1 360.099 400.71Z"/>
	<path fill="#A3ACCF" transform="scale(0.371715 0.371715)" d="M621.806 890.75L622.381 891C622.654 892.718 621.61 896.095 620.563 897.52C619.248 899.311 616.425 900.888 614.522 902.005C600.379 910.308 582.865 913.575 566.876 916.287C538.734 921.06 509.562 921.654 481.188 918.932C463.77 917.261 446.366 914.459 429.589 909.422C420.612 906.727 411.43 903.931 403.703 898.458C401.389 896.386 400.703 893.784 399.911 890.915C405.117 892.031 410.087 894.425 415.164 896.038C423.973 898.836 432.902 901.059 441.956 902.895C473.141 909.221 505.693 910.603 537.385 908.445C566.826 906.44 594.322 901.831 621.806 890.75Z"/>
	<path fill="#A9EEF6" transform="scale(0.371715 0.371715)" d="M559.483 283.99L586.288 285.667L561.207 387.539L542.279 386.652C542.812 385.617 543.326 384.649 543.463 383.476L543.811 380.75C544.175 379.464 544.054 377.858 544.535 376.742C544.921 375.848 544.662 375.17 544.816 374.25L545.812 368.25C545.99 367.192 546.146 365.119 546.536 364.211C546.86 363.459 546.654 363.002 546.81 362.25C547.048 361.106 547.108 359.19 547.534 358.211C547.862 357.456 547.653 357.005 547.81 356.25C548.047 355.108 548.107 353.188 548.533 352.211C548.863 351.455 548.651 351.006 548.807 350.25C549.042 349.117 549.112 347.211 549.533 346.242C549.922 345.347 549.662 344.671 549.817 343.75C549.995 342.688 550.142 340.62 550.535 339.711C550.861 338.957 550.653 338.504 550.81 337.75C551.045 336.617 551.105 334.704 551.53 333.742C551.924 332.847 551.667 332.174 551.821 331.25L552.817 325.25C552.996 324.185 553.146 322.126 553.537 321.211C553.859 320.46 553.654 320.001 553.81 319.25C554.048 318.106 554.108 316.19 554.534 315.211C554.862 314.456 554.652 314.005 554.809 313.25C555.046 312.109 555.107 310.187 555.533 309.211C555.863 308.455 555.651 308.006 555.808 307.25C556.044 306.112 556.104 304.18 556.531 303.211C556.865 302.452 556.648 302.009 556.805 301.25C557.039 300.12 557.111 298.206 557.532 297.242C557.924 296.345 557.656 295.673 557.812 294.75L558.75 290.255C559.152 288.075 558.716 286.243 559.483 283.99Z"/>
	<path fill="#A9EEF6" transform="scale(0.371715 0.371715)" d="M487.787 260.709L591.998 264.013L587.725 279.589C582.272 278.188 576.342 278.386 570.736 278.085L525.716 276.534L422.458 280.944C424.767 280.012 427.173 279.015 429.063 277.349C432.956 273.917 433.343 268.607 433.722 263.774L487.787 260.709Z"/>
	<path fill="#AADFF0" transform="scale(0.371715 0.371715)" d="M665.015 301.675L693.639 310.249L679.669 402.78C676.189 402.586 671.603 399.936 668 398.993C661.856 397.385 655.73 396.46 649.517 395.27L650.83 387.25C651.079 386.354 651.257 386.379 651.3 385.3L651.429 383.36L651.557 382.502L651.833 380.75C652.204 379.448 652.057 377.884 652.539 376.743C652.914 375.855 652.682 375.164 652.836 374.25C653.018 373.16 653.154 371.193 653.544 370.243C653.962 369.228 653.637 368.255 654.05 367.237C654.349 366.499 654.256 366.921 654.3 365.909C654.439 362.781 654.978 358.221 655.832 355.25C656.21 353.934 656.059 352.373 656.543 351.212C656.852 350.47 656.672 349.995 656.824 349.25C656.985 348.458 657.26 348.36 657.301 347.409C657.337 346.576 657.379 345.822 657.543 345.002L658.825 337.25C659.2 335.944 659.07 334.399 659.545 333.243C660.153 331.761 660.072 329.37 660.342 327.75L662.838 312.75L663.75 308.255C663.967 307.257 663.61 306.237 664.017 305.249C664.491 304.1 664.725 302.885 665.015 301.675Z"/>
	<path fill="#A9EEF6" transform="scale(0.371715 0.371715)" d="M649.517 395.27L602.549 389.907L628.764 293.173L665.015 301.675C664.725 302.885 664.491 304.1 664.017 305.249C663.61 306.237 663.967 307.257 663.75 308.255L662.838 312.75L660.342 327.75C660.072 329.37 660.153 331.761 659.545 333.243C659.07 334.399 659.2 335.944 658.825 337.25L657.543 345.002C657.379 345.822 657.337 346.576 657.301 347.409C657.26 348.36 656.985 348.458 656.824 349.25C656.672 349.995 656.852 350.47 656.543 351.212C656.059 352.373 656.21 353.934 655.832 355.25C654.978 358.221 654.439 362.781 654.3 365.909C654.256 366.921 654.349 366.499 654.05 367.237C653.637 368.255 653.962 369.228 653.544 370.243C653.154 371.193 653.018 373.16 652.836 374.25C652.682 375.164 652.914 375.855 652.539 376.743C652.057 377.884 652.204 379.448 651.833 380.75L651.557 382.502L651.429 383.36L651.3 385.3C651.257 386.379 651.079 386.354 650.83 387.25L649.517 395.27Z"/>
	<path fill="#F92564" transform="scale(0.371715 0.371715)" d="M486.615 393.214C495.13 392.159 504.476 392.765 513.059 392.795L559.799 393.023L551.774 424.524L426.125 422.467C416.868 422.46 407.715 421.586 398.511 420.721C387.2 419.659 375.711 418.694 364.614 416.148C359.394 414.949 354.271 413.118 349.167 411.499C351.083 409.933 354.729 408.961 357.09 408.143C368.607 404.152 380.738 402.532 392.75 400.792C423.925 396.275 455.173 394.662 486.615 393.214Z"/>
	<path fill="#ED42E4" transform="scale(0.371715 0.371715)" d="M634.763 141.231C643.364 143.051 651.055 146.493 658.84 150.511L638.961 225.33C635.21 239.572 632.354 254.61 627.147 268.362C619.395 278.286 617.038 293.293 613.444 305.08L593.806 365.205C591.048 372.961 588.815 381.214 584.84 388.445L578.409 388.568L567.649 387.927L591.813 290.511C596.08 274.079 599.53 256.796 605.538 240.915L621.907 176.249C622.82 172.63 625.459 157.705 627.483 155.864C629.801 155.025 631.162 154.918 633.574 155.429L633.794 155.128C633.288 153.064 633.241 152.805 631.661 151.41C633.593 148.688 634.075 144.432 634.763 141.231Z"/>
	<path fill="#FCFCFC" transform="scale(0.371715 0.371715)" d="M605.538 240.915L621.907 176.249C622.82 172.63 625.459 157.705 627.483 155.864C629.801 155.025 631.162 154.918 633.574 155.429C634.237 158.4 634.041 161.793 633.387 164.752C630.44 178.098 625.265 191.383 621.364 204.519L613.234 232.303C611.52 238.245 610.104 244.984 607.325 250.524C606.758 247.441 606.526 243.844 605.538 240.915Z"/>
	<defs>
		<linearGradient id="gradient_0" gradientUnits="userSpaceOnUse" x1="567.30621" y1="585.3186" x2="691.65961" y2="595.81415">
			<stop offset="0" stop-color="#7575A3"/>
			<stop offset="1" stop-color="#9797DA"/>
		</linearGradient>
	</defs>
	<path fill="url(#gradient_0)" transform="scale(0.371715 0.371715)" d="M662.128 278.058L681.727 284.02C694.075 287.72 708.436 291.435 717.683 300.943L663.994 693L650.245 797.273L643.541 848.004C642.53 854.427 641.705 860.989 640.25 867.325C639.489 870.64 637.652 872.882 634.97 874.905C624.827 882.558 610.614 886.77 598.5 890.024C587.449 892.992 576.189 895.588 564.839 897.106C557.772 898.052 550.188 897.905 543.255 899.204C542.226 898.809 541.142 898.459 540.217 897.85C539.57 897.425 539.592 896.076 539.462 895.322L540.262 895.187L559.253 891.075C571.364 888.271 584.501 885.158 594.941 878.117C597.838 876.164 600.66 874.008 602.697 871.136L602.424 870.223C607.885 868.322 612.836 866.191 617.447 862.631C620.959 859.921 623.769 857.068 624.862 852.614C626.214 847.102 626.515 841.174 627.298 835.556L632.322 801.41L651.58 660.029L687.308 402.6L700.693 306.37L666.116 295.213L666.707 293.305C667.686 289.305 665.965 284.675 663.808 281.325C663.204 280.387 662.74 279.482 662.298 278.458L662.128 278.058Z"/>
	<path fill="#AF0028" transform="scale(0.371715 0.371715)" d="M644.99 423.795C656.147 422.352 666.439 420.702 677.195 417.284L657.742 560.226L640.736 686.75L627.565 774.834L619.851 826.193L617.258 844.725C616.768 847.99 616.5 851.628 615.12 854.634C600.031 864.963 583.135 867.841 565.423 870.683C529.808 876.397 492.321 877.567 456.734 870.894C439.715 867.702 423.689 862.145 407.486 856.24L406.073 846.397L406.42 846.522C408.831 848.259 412.908 849.297 415.794 850.161C428.059 853.835 441.372 855.962 454.022 857.911C467.27 859.951 480.25 860.269 493.618 860.136C512.275 859.95 529.966 858.294 548.284 854.489C564.685 851.083 581.106 846.124 594.766 836.07C596.292 831.785 596.149 826.289 596.735 821.75L600.811 794.334L617.654 683.5L630.191 599.03C621.943 606.018 610.29 612.003 599.425 613.098L598.817 613.155L598.867 612.252C599.038 609.379 600.822 593.438 602.783 591.791C603.078 591.543 605.864 591.227 606.414 591.118C609.482 590.514 612.647 589.794 615.598 588.76C623.049 586.147 630.376 581.957 636.269 576.704C651.208 563.389 659.387 545.686 660.447 525.736C661.572 504.587 653.055 483.896 639.193 468.307C640.571 464.669 640.286 459.494 640.713 455.561C641.839 445.188 642.809 433.986 644.99 423.795Z"/>
	<path fill="#AADFF0" transform="scale(0.371715 0.371715)" d="M508.223 899.37L507.947 899.422C501.452 899.861 494.636 899.364 488.137 899.072C463.32 897.956 439.034 894.132 415.317 886.627C405.911 883.651 396.119 880.458 388.276 874.25C385.702 872.213 384.78 870.959 384.1 867.735C382.822 861.672 382.41 855.286 381.568 849.136L375.934 808.639L355.529 663.5L325.515 443.5L305.993 300.492C307.606 297.65 310.535 295.372 313.158 293.499C321.426 287.593 331.361 284.466 340.986 281.562L361.456 275.391C361.767 280.456 362.104 283.647 366.048 287.25L369.3 287.408C370.101 287.459 370.391 288.167 370.903 288.75C370.852 289.143 371.01 289.629 370.75 289.928C369.489 291.376 361.475 292.635 359.281 293.21C349.189 295.854 338.954 298.745 329.529 303.274C327.488 304.255 324.654 305.373 323.04 306.973L327.837 344.855L336.461 410.75L363.459 610.75L386.823 774.016L396.023 834.643C397.413 843.314 397.988 851.923 400.188 860.46C401.119 861.323 402.095 862.063 403.212 862.667C418.861 871.142 436.858 875.033 454.259 878.002C504.145 886.513 553.785 884.692 602.424 870.223L602.697 871.136C600.66 874.008 597.838 876.164 594.941 878.117C584.501 885.158 571.364 888.271 559.253 891.075L540.262 895.187L539.462 895.322L508.223 899.37Z"/>
	<defs>
		<linearGradient id="gradient_1" gradientUnits="userSpaceOnUse" x1="552.13879" y1="350.5274" x2="348.3288" y2="331.26865">
			<stop offset="0" stop-color="#ABF8FD"/>
			<stop offset="1" stop-color="#F4F6FA"/>
		</linearGradient>
	</defs>
	<path fill="url(#gradient_1)" transform="scale(0.371715 0.371715)" d="M408.417 292.501C408.394 291.473 408.448 291.383 409 290.509C414.298 288.297 421.825 288.651 427.588 287.987L487.149 283.308L559.483 283.99C558.716 286.243 559.152 288.075 558.75 290.255L557.812 294.75C557.656 295.673 557.924 296.345 557.532 297.242C557.111 298.206 557.039 300.12 556.805 301.25C556.648 302.009 556.865 302.452 556.531 303.211C556.104 304.18 556.044 306.112 555.808 307.25C555.651 308.006 555.863 308.455 555.533 309.211C555.107 310.187 555.046 312.109 554.809 313.25C554.652 314.005 554.862 314.456 554.534 315.211C554.108 316.19 554.048 318.106 553.81 319.25C553.654 320.001 553.859 320.46 553.537 321.211C553.146 322.126 552.996 324.185 552.817 325.25L551.821 331.25C551.667 332.174 551.924 332.847 551.53 333.742C551.105 334.704 551.045 336.617 550.81 337.75C550.653 338.504 550.861 338.957 550.535 339.711C550.142 340.62 549.995 342.688 549.817 343.75C549.662 344.671 549.922 345.347 549.533 346.242C549.112 347.211 549.042 349.117 548.807 350.25C548.651 351.006 548.863 351.455 548.533 352.211C548.107 353.188 548.047 355.108 547.81 356.25C547.653 357.005 547.862 357.456 547.534 358.211C547.108 359.19 547.048 361.106 546.81 362.25C546.654 363.002 546.86 363.459 546.536 364.211C546.146 365.119 545.99 367.192 545.812 368.25L544.816 374.25C544.662 375.17 544.921 375.848 544.535 376.742C544.054 377.858 544.175 379.464 543.811 380.75L543.463 383.476C543.326 384.649 542.812 385.617 542.279 386.652C504.325 385.722 466.553 386.841 428.739 390.279C405.626 392.381 382.652 395.043 360.099 400.71C359.572 399.1 359.134 397.64 359.081 395.935L349.742 302.746L365.031 298.669C367.105 298.108 369.908 296.942 372.037 296.996C372.567 299.838 372.905 302.852 374.367 305.388C374.784 304.462 375.203 303.556 375.403 302.553L375.484 302.052L376.025 302.122L377.336 303.289C382.722 299.379 379.06 281.342 389.375 283.188C391.433 283.556 392.833 284.729 393.984 286.431C396.561 290.241 397.876 295.224 398.421 299.75C398.952 304.15 398.425 310.687 401.308 314.25C402.483 314.029 402.705 313.317 403.417 312.409C404.373 308.3 404.398 304.381 404.434 300.185L404.579 295.25L408.417 292.501Z"/>
	<defs>
		<linearGradient id="gradient_2" gradientUnits="userSpaceOnUse" x1="400.3074" y1="331.76395" x2="396.13263" y2="343.32571">
			<stop offset="0" stop-color="#00000D"/>
			<stop offset="1" stop-color="#050025"/>
		</linearGradient>
	</defs>
	<path fill="url(#gradient_2)" transform="scale(0.371715 0.371715)" d="M396.906 320.047C396.971 321.023 397.416 322.924 396.793 323.643C395.455 325.188 393.827 326.084 393.764 328.375C393.739 329.291 393.785 329.153 394.14 329.905C395.82 333.461 394.291 337.703 398.993 339.444C400.014 339.822 400.813 339.5 401.75 339.013C403.929 337.882 404.943 335.777 405.506 333.497L405.772 332.293C406.845 333.75 407.754 333.63 409.176 334.558L407.747 338.495C406.058 342.631 403.643 344.154 399.654 345.784C397.485 345.11 395.189 344.172 393.685 342.405C391.028 339.286 390.795 334.899 391.111 330.985C391.519 325.919 393.219 323.263 396.906 320.047Z"/>
	<path fill="#ED42E4" transform="scale(0.371715 0.371715)" d="M398.605 318.466L399.011 318.608C400.592 319.138 401.998 319.276 403.646 319.442C404.555 319.534 404.204 319.442 405.005 319.899L405.772 332.293L405.506 333.497C404.943 335.777 403.929 337.882 401.75 339.013C400.813 339.5 400.014 339.822 398.993 339.444C394.291 337.703 395.82 333.461 394.14 329.905C393.785 329.153 393.739 329.291 393.764 328.375C393.827 326.084 395.455 325.188 396.793 323.643C397.416 322.924 396.971 321.023 396.906 320.047L398.605 318.466Z"/>
	<path fill="#050015" transform="scale(0.371715 0.371715)" d="M376.025 302.122L377.336 303.289C382.722 299.379 379.06 281.342 389.375 283.188C391.433 283.556 392.833 284.729 393.984 286.431C396.561 290.241 397.876 295.224 398.421 299.75C398.952 304.15 398.425 310.687 401.308 314.25C402.483 314.029 402.705 313.317 403.417 312.409C404.373 308.3 404.398 304.381 404.434 300.185L404.579 295.25L408.417 292.501C408.733 298.914 409.403 305.787 407.694 312.052C407.289 313.535 405.633 317.088 406.312 318.243C409.193 323.143 410.141 328.945 409.176 334.558C407.754 333.63 406.845 333.75 405.772 332.293L405.005 319.899C404.204 319.442 404.555 319.534 403.646 319.442C401.998 319.276 400.592 319.138 399.011 318.608L398.605 318.466C395.765 314.218 395.157 309.535 394.941 304.56C394.64 301.748 394.631 295.471 393.208 293.352L385.572 294.183C385.359 298.253 385.27 303.69 382.114 306.655C381.093 307.614 379.521 308.164 378.094 307.975C376.551 307.771 375.272 306.554 374.367 305.388C374.784 304.462 375.203 303.556 375.403 302.553L375.484 302.052L376.025 302.122Z"/>
	<path transform="scale(0.371715 0.371715)" d="M408.417 292.501C408.733 298.914 409.403 305.787 407.694 312.052C407.289 313.535 405.633 317.088 406.312 318.243C409.193 323.143 410.141 328.945 409.176 334.558C407.754 333.63 406.845 333.75 405.772 332.293L405.005 319.899C404.204 319.442 404.555 319.534 403.646 319.442C401.998 319.276 400.592 319.138 399.011 318.608L398.605 318.466C395.765 314.218 395.157 309.535 394.941 304.56L395.299 301.114C395.783 303.348 395.667 305.488 396.078 307.75C396.482 309.975 396.44 311.373 397.347 313.631C397.527 314.079 397.57 314.575 397.75 315.023C398.208 316.171 399.476 318.086 400.748 318.375C401.068 318.448 401.687 318.386 402 318.377L404.75 318.5L405.375 318.125L404.755 317L405.5 316L405.255 315.25L405.596 314.953C406.14 314.406 406.224 313.942 406.5 313.25L406.875 312.375C407.128 311.488 407.221 310.662 407.5 309.75C407.729 309.001 407.835 307.567 408 306.75L407.877 305L407.875 294.625L407.125 294.125L405.185 295.685C404.928 300.945 406.047 307.269 404.162 312.16L403.649 312.506L403.417 312.409C404.373 308.3 404.398 304.381 404.434 300.185L404.579 295.25L408.417 292.501Z"/>
	<path fill="#EC0319" transform="scale(0.371715 0.371715)" d="M598.817 613.155L599.425 613.098C610.29 612.003 621.943 606.018 630.191 599.03L617.654 683.5L600.811 794.334L596.735 821.75C596.149 826.289 596.292 831.785 594.766 836.07C581.106 846.124 564.685 851.083 548.284 854.489C529.966 858.294 512.275 859.95 493.618 860.136C480.25 860.269 467.27 859.951 454.022 857.911C441.372 855.962 428.059 853.835 415.794 850.161C412.908 849.297 408.831 848.259 406.42 846.522C416.569 840.863 425.55 832.881 434.25 825.255C451.34 810.274 466.98 793.606 480.851 775.576C501.679 748.503 518.538 718.904 535.178 689.177C545.628 670.507 556.657 651.9 565.285 632.288C568.64 624.663 571.1 616.668 573.7 608.766L579.065 611.409C579.988 625.574 580.034 639.741 579.229 653.913L578.198 666.25C577.761 669.692 576.951 673.359 577.362 676.841C577.687 679.589 579.141 682.448 581.156 684.343C583.709 686.743 586.559 687.826 590.023 687.589C592.932 687.39 595.37 685.554 597.242 683.384C600.125 680.041 601.324 676.006 600.955 671.615L598.829 654.781C597.641 640.786 597.963 627.151 598.817 613.155Z"/>
	<path fill="#FCFCFC" transform="scale(0.371715 0.371715)" d="M489.642 790.75C491.701 790.32 493.779 790.577 495.793 791.172C498.582 791.995 500.284 793.935 501.571 796.464C502.8 798.88 502.84 801.738 501.853 804.25C500.575 807.505 498.005 809.444 494.872 810.75C493.007 811.198 490.591 810.89 488.785 810.255C486.222 809.355 484.189 807.157 483.037 804.75C481.837 802.244 481.698 799.48 482.742 796.901C483.971 793.863 486.781 792.049 489.642 790.75Z"/>
	<defs>
		<linearGradient id="gradient_3" gradientUnits="userSpaceOnUse" x1="518.77283" y1="374.7182" x2="339.99448" y2="818.18933">
			<stop offset="0" stop-color="#F50C32"/>
			<stop offset="1" stop-color="#FF296A"/>
		</linearGradient>
	</defs>
	<path fill="url(#gradient_3)" transform="scale(0.371715 0.371715)" d="M406.073 846.397L343.81 416.217C350.009 418.489 356.152 420.844 362.579 422.419C384.664 427.833 408.367 428.636 431.021 430.107C502.721 434.763 573.721 432.699 644.99 423.795C642.809 433.986 641.839 445.188 640.713 455.561C640.286 459.494 640.571 464.669 639.193 468.307C653.055 483.896 661.572 504.587 660.447 525.736C659.387 545.686 651.208 563.389 636.269 576.704C630.376 581.957 623.049 586.147 615.598 588.76C612.647 589.794 609.482 590.514 606.414 591.118C605.864 591.227 603.078 591.543 602.783 591.791C600.822 593.438 599.038 609.379 598.867 612.252L598.817 613.155C597.963 627.151 597.641 640.786 598.829 654.781L600.955 671.615C601.324 676.006 600.125 680.041 597.242 683.384C595.37 685.554 592.932 687.39 590.023 687.589C586.559 687.826 583.709 686.743 581.156 684.343C579.141 682.448 577.687 679.589 577.362 676.841C576.951 673.359 577.761 669.692 578.198 666.25L579.229 653.913C580.034 639.741 579.988 625.574 579.065 611.409L573.7 608.766C571.1 616.668 568.64 624.663 565.285 632.288C556.657 651.9 545.628 670.507 535.178 689.177C518.538 718.904 501.679 748.503 480.851 775.576C466.98 793.606 451.34 810.274 434.25 825.255C425.55 832.881 416.569 840.863 406.42 846.522L406.073 846.397Z"/>
	<path fill="#17013D" transform="scale(0.371715 0.371715)" d="M505.347 598.25C506.351 597.93 506.461 597.931 507.432 598.123C509.202 599.779 509.951 600.882 510.312 603.295C510.822 606.709 509.787 610.154 507.75 612.864L506.75 613.037C505.526 613.087 504.899 612.638 504.08 611.799C502.672 610.357 502.493 608.166 502.506 606.25C502.529 602.968 502.931 600.573 505.347 598.25Z"/>
	<path fill="#17013D" transform="scale(0.371715 0.371715)" d="M517.719 597.75L519.25 597.687C520.978 599.502 521.97 601.519 522.296 604.027C522.777 607.731 521.961 610.415 519.75 613.371C518.615 613.445 518.065 613.63 517.107 612.887C515.502 611.641 514.698 608.909 514.557 606.984C514.296 603.445 515.467 600.425 517.719 597.75Z"/>
	<path fill="#17013D" transform="scale(0.371715 0.371715)" d="M463.392 674.25C464.607 673.998 466.017 673.889 467.25 674.045C470.168 674.415 472.174 676.859 473.725 679.119C480.07 688.365 480.584 702.352 478.487 712.938C476.98 720.545 474.409 726.551 467.75 731C466.506 731.486 465.272 731.355 464 731.021C460.566 730.118 458.31 726.93 456.721 723.977C450.611 712.619 450.618 697.995 454.327 685.876C455.854 680.885 458.753 676.76 463.392 674.25Z"/>
	<path fill="#AF0028" transform="scale(0.371715 0.371715)" d="M500.456 518.893C503.765 522.462 503.11 532.446 502.945 537.221C502.18 559.342 490.918 582.006 474.796 596.911C463.636 607.229 449.051 612.126 433.98 611.491L423.495 610.9L424.498 592.449C431.079 592.696 438.089 592.804 444.583 591.702C455.684 589.818 466.021 584.712 474.653 577.571C486.775 567.544 495.182 551.539 498.356 536.25C499.553 530.484 499.883 524.728 500.456 518.893Z"/>
	<path fill="#17013D" transform="scale(0.371715 0.371715)" d="M375.795 563.092C373.97 559.325 371.672 555.837 369.885 552.031C365.17 541.99 362.952 531.511 362.653 520.451C362.187 503.189 368.514 484.587 380.472 472.03C393.203 458.663 410.58 451.424 428.971 451.072C446.486 450.736 464.505 457.741 477.166 469.926C487.309 479.686 493.155 492.142 497.432 505.349C498.9 509.88 500.351 514.086 500.456 518.893C499.883 524.728 499.553 530.484 498.356 536.25C495.182 551.539 486.775 567.544 474.653 577.571C466.021 584.712 455.684 589.818 444.583 591.702C438.089 592.804 431.079 592.696 424.498 592.449L423.495 610.9C423.489 619.445 423.567 627.973 424.456 636.483C425.025 641.923 426.641 647.703 426.4 653.143C426.3 655.399 425.474 658.152 424.18 660.024C422.735 662.113 419.905 664.075 417.37 664.451C414.91 664.815 411.87 664.09 409.895 662.575C407.315 660.596 405.685 657.6 405.073 654.439C404.425 651.088 405.085 647.525 405.344 644.156C405.589 640.987 405.552 637.799 405.534 634.623C405.47 623.651 404.488 612.655 403.131 601.772C394.649 594.254 386.79 585.782 380.858 576.118C378.422 572.149 376.137 567.799 375.795 563.092Z"/>
	<path fill="#FCFCFC" transform="scale(0.371715 0.371715)" d="M410.897 604.85L415.608 608.721L416.843 638.164C417.222 643.473 418.996 648.294 418.524 653.717C418.398 655.166 417.777 656.129 416.602 656.958C415.773 657.544 415.179 657.148 414.25 656.975C412.787 655.659 411.999 654.487 411.672 652.5C410.836 647.416 412.496 641.648 412.549 636.43C412.655 625.877 411.887 615.351 410.897 604.85Z"/>
	<path fill="#AF0028" transform="scale(0.371715 0.371715)" d="M375.795 563.092C378.941 566.894 382.065 571.192 385.81 574.411C389.564 577.638 394.306 580.071 397.743 583.568C401.944 587.843 402.874 596.068 403.131 601.772C394.649 594.254 386.79 585.782 380.858 576.118C378.422 572.149 376.137 567.799 375.795 563.092Z"/>
	<path fill="#FE8BFE" transform="scale(0.371715 0.371715)" d="M421.859 457.669C426 457.166 430.339 457.216 434.5 457.564C451.577 458.991 467.54 468.423 478.319 481.421C468.184 473.668 458.867 467.769 446.603 463.908L445.541 463.589C429.909 459.291 411.262 462.318 396.927 469.496C393.29 471.318 389.979 473.881 386.455 475.94C396.374 465.267 407.546 459.887 421.859 457.669Z"/>
	<path fill="#CB34EE" transform="scale(0.371715 0.371715)" d="M398.665 572.735C406.946 574.023 414.078 576.147 422.017 578.603C415.555 588.659 416.232 597.395 415.608 608.721L410.897 604.85C410.205 601.868 410.123 598.716 409.532 595.691C407.969 587.689 404.168 578.793 398.665 572.735Z"/>
	<defs>
		<linearGradient id="gradient_4" gradientUnits="userSpaceOnUse" x1="390.33417" y1="574.02673" x2="493.01199" y2="519.96521">
			<stop offset="0" stop-color="#A79FCF"/>
			<stop offset="1" stop-color="#A8B9D9"/>
		</linearGradient>
	</defs>
	<path fill="url(#gradient_4)" transform="scale(0.371715 0.371715)" d="M480.122 494.633C488.946 507.065 492.129 521.118 489.581 536.234C486.888 552.204 476.916 565.743 463.834 574.935C453.834 581.961 438.433 586.307 426.186 585.027C429.631 583.725 434.037 582.592 436.532 579.75C437.034 578.243 437.022 577.562 436.75 576.053C435.491 574.728 435.431 574.482 433.607 574.508C429.974 574.558 425.066 576.778 422.017 578.603C414.078 576.147 406.946 574.023 398.665 572.735L393.917 570.22C383.199 563.679 375.407 550.286 372.464 538.327C375.158 540.755 376.817 544.428 379.158 547.233C387.653 557.41 400.014 565.753 412.926 568.917L413.75 569.114L416.537 569.701C429.266 571.534 443.7 569.231 454.192 561.423C475.695 545.422 476.652 518.87 480.122 494.633Z"/>
	<path fill="#FCFCFC" transform="scale(0.371715 0.371715)" d="M372.464 538.327C369.693 530.121 369.344 519.796 370.803 511.312C372.977 498.671 380.898 487.669 391.249 480.28C404.736 470.653 421.407 465.619 438 468.507C455.655 471.579 469.743 479.874 480.122 494.633C476.652 518.87 475.695 545.422 454.192 561.423C443.7 569.231 429.266 571.534 416.537 569.701L413.75 569.114L412.926 568.917C400.014 565.753 387.653 557.41 379.158 547.233C376.817 544.428 375.158 540.755 372.464 538.327Z"/>
	<path fill="#17013D" transform="scale(0.371715 0.371715)" d="M444.521 487.739L462.779 507.021L446.027 524.428L464.786 543.001L445.707 563.132C442.35 560.78 439.745 557.652 436.987 554.656L427.14 544.247L411.328 559.475C410.588 560.199 410.413 560.408 409.384 560.7L390.085 540.982L407.876 523.322C403.486 517.424 397.609 512.112 392.055 507.307L410.497 488.251L427.477 505.233L444.521 487.739Z"/>
	<path fill="#17013D" transform="scale(0.371715 0.371715)" d="M532.364 558.006C531.894 555.458 529.934 552.194 528.954 549.691C526.967 544.615 525.547 539.21 524.75 533.819C521.88 514.394 527.003 494.425 538.685 478.691C549.298 464.397 565.422 454.149 583.105 451.57C604.601 448.435 622.292 455.652 639.193 468.307C653.055 483.896 661.572 504.587 660.447 525.736C659.387 545.686 651.208 563.389 636.269 576.704C630.376 581.957 623.049 586.147 615.598 588.76C612.647 589.794 609.482 590.514 606.414 591.118C605.864 591.227 603.078 591.543 602.783 591.791C600.822 593.438 599.038 609.379 598.867 612.252L598.817 613.155C597.963 627.151 597.641 640.786 598.829 654.781L600.955 671.615C601.324 676.006 600.125 680.041 597.242 683.384C595.37 685.554 592.932 687.39 590.023 687.589C586.559 687.826 583.709 686.743 581.156 684.343C579.141 682.448 577.687 679.589 577.362 676.841C576.951 673.359 577.761 669.692 578.198 666.25L579.229 653.913C580.034 639.741 579.988 625.574 579.065 611.409L573.7 608.766C567.378 605.362 561.258 602.232 555.65 597.674C543.967 588.179 533.967 573.205 532.364 558.006Z"/>
	<path fill="#ED42E4" transform="scale(0.371715 0.371715)" d="M592.152 661.968C592.541 666.298 594.955 674.656 592.061 678.25C591.097 679.448 590.475 679.663 589 679.92L587.468 679.139C589.632 676.944 587.755 673.235 588.612 670.65C589.2 668.875 591.507 667.368 592.048 665.75C592.318 664.943 592.127 662.887 592.152 661.968Z"/>
	<path fill="#FCFCFC" transform="scale(0.371715 0.371715)" d="M587.344 640.117L590.974 639.951L592.152 661.968C592.127 662.887 592.318 664.943 592.048 665.75C591.507 667.368 589.2 668.875 588.612 670.65C587.755 673.235 589.632 676.944 587.468 679.139C586.919 678.8 586.215 678.425 585.75 677.958C584.581 676.783 584.371 675.093 584.506 673.5C584.701 671.191 586.154 670.226 587.687 668.707C586.04 659.382 586.954 649.539 587.344 640.117Z"/>
	<path fill="#ED42E4" transform="scale(0.371715 0.371715)" d="M586.772 457.646L591.25 457.333C605.9 457.017 621.211 461.449 631.928 471.8C628.003 469.943 624.291 467.575 620.32 465.847C607.22 460.146 594.345 461.068 580.586 462.849C572.897 465.176 565.315 467.7 558.38 471.856C553.193 474.965 548.693 478.835 544.109 482.746C554.805 467.981 569.091 460.633 586.772 457.646Z"/>
	<defs>
		<linearGradient id="gradient_5" gradientUnits="userSpaceOnUse" x1="575.40393" y1="618.83679" x2="610.95087" y2="596.63037">
			<stop offset="0" stop-color="#EA53FF"/>
			<stop offset="1" stop-color="#C18FE5"/>
		</linearGradient>
	</defs>
	<path fill="url(#gradient_5)" transform="scale(0.371715 0.371715)" d="M581.01 591.409C583.207 588.719 584.316 585.347 586.828 582.829C590.557 579.091 594.666 576.901 599.917 576.674C600.074 578.837 599.935 582.052 600.907 583.984L601.292 584.694C595.274 588.762 594.139 594.263 592.838 601.07C590.412 613.771 590.759 627.071 590.974 639.951L587.344 640.117C586.537 636.489 587.102 631.425 587.073 627.677C586.974 614.982 585.892 603.252 581.01 591.409Z"/>
	<path fill="#AF0028" transform="scale(0.371715 0.371715)" d="M532.364 558.006C538.43 566.653 544.434 575.318 553.08 581.597C556.003 583.719 559.198 585.545 562.5 587.012C566.41 588.747 572.35 590.222 574.992 593.693C578.157 597.849 578.607 606.354 579.065 611.409L573.7 608.766C567.378 605.362 561.258 602.232 555.65 597.674C543.967 588.179 533.967 573.205 532.364 558.006Z"/>
	<path fill="#A3ACCF" transform="scale(0.371715 0.371715)" d="M636.189 484.434C645.904 492.538 651.411 506.271 652.515 518.672C653.979 535.137 648.62 551.2 638.003 563.852C633.031 569.778 626.489 575.532 619.468 578.896C613.81 581.607 607.36 583.191 601.292 584.694L600.907 583.984C599.935 582.052 600.074 578.837 599.917 576.674C594.666 576.901 590.557 579.091 586.828 582.829C584.316 585.347 583.207 588.719 581.01 591.409C576.95 584.734 569.322 582.28 562.909 578.594C550.195 571.285 541.992 560.152 536.646 546.779L537.169 547.103C541.527 549.83 544.163 553.614 548.009 556.851C561.052 567.832 577.587 575.287 594.905 571.32C601.392 569.834 607.033 566.828 612.255 562.754L611.968 562.324C616.133 557.596 621.177 553.09 625.619 548.554C627.244 546.895 630.541 544.376 630.869 542.05C632.242 539.58 632.484 536.074 632.965 533.298C634.271 525.763 635.453 518.145 635.877 510.5L636.189 484.434Z"/>
	<path fill="#FCFCFC" transform="scale(0.371715 0.371715)" d="M536.646 546.779C534.005 540.151 532.66 533.283 532.576 526.139C532.411 511.961 538.359 497.8 548.204 487.682C560.11 475.445 577.692 467.889 594.775 467.829C610.64 467.772 624.844 473.222 636.189 484.434L635.877 510.5C635.453 518.145 634.271 525.763 632.965 533.298C632.484 536.074 632.242 539.58 630.869 542.05C630.541 544.376 627.244 546.895 625.619 548.554C621.177 553.09 616.133 557.596 611.968 562.324L612.255 562.754C607.033 566.828 601.392 569.834 594.905 571.32C577.587 575.287 561.052 567.832 548.009 556.851C544.163 553.614 541.527 549.83 537.169 547.103L536.646 546.779Z"/>
	<path fill="#17013D" transform="scale(0.371715 0.371715)" d="M611.968 562.324L594.094 544.248L577.232 561.712L557.252 542.473L575.95 525.336C571.38 519.149 564.63 513.812 558.9 508.685L576.953 489.716L594.307 507.329L610.535 490.257L629.083 508.268C623.31 513.62 617.761 518.849 612.823 525.005L630.869 542.05C630.541 544.376 627.244 546.895 625.619 548.554C621.177 553.09 616.133 557.596 611.968 562.324Z"/>
</svg>
